<svg xmlns="http://www.w3.org/2000/svg" class="css-1r4bsbq" viewBox="0 0 250 213.658">
  <g xmlns="http://www.w3.org/2000/svg" fill="#6629A0">
    <path d="M78.953 26.101 54.188 43.398c.642.3 1.277.614 1.902.933.624.316 1.241.65 1.853.982a63.23 63.23 0 0 1 3.51 2.1l24.334-17.65c-.601-.277-1.195-.568-1.783-.855a85.34 85.34 0 0 1-1.745-.892c-.571-.314-1.129-.622-1.681-.938a59.036 59.036 0 0 1-1.625-.977M122.781 77.043l-26.487 28.358c.73.34 1.45.684 2.161 1.047.712.357 1.414.724 2.113 1.105.694.388 1.378.778 2.05 1.18a47.8 47.8 0 0 1 1.995 1.236l25.984-29.076c-.676-.283-1.35-.58-2.018-.884a66.013 66.013 0 0 1-1.976-.928 80.54 80.54 0 0 1-1.938-.997c-.64-.34-1.267-.684-1.884-1.041m41.009-43.91-15.631 16.739c.588.29 1.166.588 1.745.89.58.31 1.154.616 1.711.935.568.318 1.12.642 1.67.971.546.332 1.085.671 1.62 1.018l15.372-17.204a82.359 82.359 0 0 1-3.318-1.599c-.54-.283-1.075-.568-1.604-.858s-1.054-.589-1.565-.892M209.219 79.261l-15.105 26.467c.661.3 1.33.606 1.987.928a77.96 77.96 0 0 1 1.969.981c.648.345 1.295.692 1.93 1.047.637.36 1.272.732 1.902 1.107l14.467-26.86a82.637 82.637 0 0 1-1.827-.843 58.713 58.713 0 0 1-1.802-.894 46.872 46.872 0 0 1-1.781-.94c-.584-.327-1.164-.651-1.74-.993M58.429 82.502a44.72 44.72 0 0 1-4.064.44c-.701.046-1.429.076-2.161.092a59.6 59.6 0 0 1-2.252.008l10.674 16.857c.67-.123 1.354-.224 2.048-.324a54.452 54.452 0 0 1 4.316-.36c.742-.025 1.49-.04 2.261-.038L58.43 82.502M157.822 85.404c-.463.066-.938.125-1.426.17-.489.045-.985.087-1.496.117a50.941 50.941 0 0 1-3.202.042c-.072-.008-.147-.003-.224-.013-.062 0-.147-.005-.219-.005a6.197 6.197 0 0 0-.22-.006c-.073-.002-.142-.01-.219-.015l12.964 15.482a28.64 28.64 0 0 1 3.22-.565 37.046 37.046 0 0 1 3.539-.239l-12.717-14.968m-42.314-49.817c-.488.057-.987.108-1.498.144-.517.041-1.044.062-1.586.082-.537.013-1.098.018-1.663.013a50.928 50.928 0 0 1-1.74-.054l6.713 8.024c.476-.095.964-.172 1.465-.241.501-.07 1.01-.124 1.532-.173a49.66 49.66 0 0 1 1.609-.108c.542-.028 1.1-.036 1.67-.036l-6.502-7.65M196.443 41.514c-.38.064-.776.12-1.187.164-.41.052-.836.09-1.265.119-.434.023-.89.046-1.35.051-.462.008-.94.003-1.43-.01l7.37 7.273c.388-.072.79-.136 1.2-.198.417-.051.844-.092 1.278-.128a31.835 31.835 0 0 1 2.768-.062l-7.384-7.21M149.693 20.257l-26.138-2.427c.141.17.28.337.411.51.136.166.267.339.396.506.126.172.25.344.375.511.118.175.242.352.35.522.118.167.231.34.331.514a12.169 12.169 0 0 1 .583 1.013c.09.164.173.331.255.498l26.292 2.347c-.141-.165-.29-.337-.432-.507a10.676 10.676 0 0 1-.41-.503c-.142-.17-.268-.335-.394-.502-.131-.162-.25-.336-.375-.509a23.844 23.844 0 0 1-.676-1.002c-.098-.162-.198-.326-.293-.488s-.188-.319-.275-.483M105.145 59.35 72.65 57.693c.162.239.326.475.48.714.155.24.309.478.448.717a26.95 26.95 0 0 1 .812 1.457c.1.206.198.404.29.607.1.2.19.396.27.596.088.203.167.404.242.6.077.2.149.392.22.588l32.57 1.498c-.137-.19-.276-.39-.415-.583-.126-.193-.257-.388-.383-.589-.126-.195-.249-.388-.367-.588a12.143 12.143 0 0 1-.345-.589c-.14-.231-.267-.473-.39-.707-.126-.236-.24-.468-.352-.696a49.102 49.102 0 0 1-.309-.694c-.097-.216-.187-.453-.275-.674m87.178 4.431-27.148-1.375c.19.208.373.432.548.65.177.219.365.44.532.661.164.218.339.445.496.668.162.219.32.45.483.676.126.183.25.373.372.555.116.188.24.37.35.55.113.185.221.37.329.548l.303.542 27.158 1.254c-.159-.185-.308-.352-.46-.537a14.78 14.78 0 0 1-.447-.545c-.146-.177-.29-.357-.426-.537-.142-.18-.275-.357-.412-.54-.162-.216-.318-.44-.473-.655-.151-.221-.293-.43-.431-.648a18.52 18.52 0 0 1-.774-1.267M153.314 122.883l-34.542.396c.185.267.368.54.54.81.177.272.35.55.516.82.172.28.33.555.483.835a26.159 26.159 0 0 1 .897 1.686c.142.28.275.565.399.848.13.275.25.56.367.838.113.275.226.558.33.833l34.824-.63c-.203-.262-.393-.535-.58-.802-.19-.27-.376-.537-.558-.81-.18-.27-.36-.54-.527-.812-.165-.27-.334-.545-.491-.814-.162-.27-.324-.543-.473-.813-.152-.267-.285-.54-.427-.802-.136-.27-.27-.534-.398-.801a29.196 29.196 0 0 1-.36-.782"/>
    <path d="M93.48 150.576c-4.313.162-8.767-.373-13.113-1.475a53.81 53.81 0 0 1-12.442-4.909c-3.842-2.113-7.289-4.657-10.113-7.482-2.794-2.811-4.958-5.88-6.266-9.095-1.285-3.18-1.617-6.181-1.12-8.882.493-2.676 1.788-5.058 3.754-7.032 1.948-1.953 4.547-3.511 7.69-4.575 3.1-1.046 6.739-1.617 10.802-1.596 4.027.028 8.124.625 12.074 1.694a53.256 53.256 0 0 1 11.29 4.472c3.522 1.894 6.75 4.15 9.48 6.674 2.74 2.54 4.988 5.356 6.527 8.345 1.555 3.033 2.244 5.963 2.157 8.682a13.028 13.028 0 0 1-2.609 7.459c-1.642 2.207-4.025 4.045-7.05 5.381-3.063 1.347-6.785 2.175-11.061 2.34m-23.738-51.4c-.036 0-.082 0-.12-.003-.042.003-.088 0-.127.003l-.123-.003c-.041 0-.082 0-.12.003a59.327 59.327 0 0 0-2.262.038c-.743.031-1.473.075-2.19.139a50.33 50.33 0 0 0-2.126.221c-.694.1-1.377.2-2.048.324-3.878.699-7.327 1.891-10.234 3.49-2.945 1.632-5.346 3.683-7.104 6.081a17.078 17.078 0 0 0-3.23 8.278c-.335 3.095.125 6.467 1.498 10.01 1.655 4.257 4.462 8.346 8.137 12.08 3.706 3.773 8.268 7.155 13.375 9.975a69.786 69.786 0 0 0 16.543 6.52c5.778 1.455 11.684 2.133 17.395 1.874 5.238-.237 9.823-1.239 13.647-2.843 3.78-1.593 6.81-3.765 9.008-6.371 2.157-2.565 3.506-5.541 3.963-8.79.448-3.194.031-6.656-1.318-10.25a37.264 37.264 0 0 0-.33-.832c-.117-.278-.236-.563-.367-.838-.12-.283-.257-.568-.398-.848a26.159 26.159 0 0 0-.897-1.686c-.154-.28-.314-.555-.483-.835-.167-.27-.34-.548-.517-.82a38.874 38.874 0 0 0-3.408-4.505 45.633 45.633 0 0 0-3.354-3.462 50.675 50.675 0 0 0-3.788-3.21 61.306 61.306 0 0 0-4.15-2.946 47.8 47.8 0 0 0-1.995-1.236c-.676-.401-1.36-.792-2.051-1.18-.697-.378-1.4-.748-2.113-1.105a68.711 68.711 0 0 0-8.494-3.598 69.496 69.496 0 0 0-6.6-1.933 64.86 64.86 0 0 0-6.775-1.251 59.448 59.448 0 0 0-6.844-.491M201.712 146.518c-3.467.131-7.173-.355-10.916-1.352-3.75-1-7.515-2.506-11.069-4.392-3.547-1.892-6.867-4.154-9.735-6.685-2.853-2.503-5.256-5.256-7.001-8.127-1.712-2.84-2.625-5.528-2.797-7.952-.172-2.403.368-4.546 1.542-6.322 1.154-1.758 2.938-3.164 5.261-4.122 2.298-.957 5.128-1.468 8.446-1.45 3.28.018 6.741.563 10.193 1.53 3.444.95 6.888 2.33 10.149 4.042 3.27 1.706 6.371 3.745 9.116 6.03 2.763 2.287 5.174 4.826 7.04 7.522 1.889 2.724 3.053 5.356 3.526 7.79.48 2.46.262 4.724-.617 6.667-.894 1.966-2.45 3.598-4.644 4.778-2.21 1.195-5.063 1.912-8.494 2.043m-30.017-46.146h-.285c-.1 0-.195 0-.29.002-.095-.007-.188-.002-.288-.002l-.29.002c-.61.016-1.219.039-1.802.08-.594.041-1.17.09-1.738.16a28.64 28.64 0 0 0-3.22.565c-2.632.63-4.888 1.614-6.723 2.899-1.853 1.29-3.275 2.891-4.23 4.752-.967 1.879-1.437 4.025-1.383 6.371.059 2.375.668 4.953 1.873 7.685.113.257.237.519.363.784.128.267.264.53.398.802.141.264.275.534.427.802.149.27.308.542.473.812.159.27.326.545.49.814.167.273.347.543.527.813.18.272.368.54.558.81.185.266.375.539.58.801 2.545 3.444 5.791 6.705 9.52 9.669 3.743 2.97 7.952 5.62 12.396 7.815 4.446 2.19 9.1 3.91 13.709 5.04 4.598 1.126 9.132 1.645 13.367 1.452 4.516-.203 8.25-1.195 11.126-2.816 2.837-1.591 4.84-3.781 5.942-6.392 1.085-2.57 1.31-5.56.622-8.793-.681-3.184-2.244-6.628-4.744-10.162a44.634 44.634 0 0 0-3.488-4.328 53.653 53.653 0 0 0-4.097-4.017 60.965 60.965 0 0 0-4.595-3.688 71.325 71.325 0 0 0-4.986-3.31 93.85 93.85 0 0 0-1.902-1.108c-.635-.357-1.282-.702-1.93-1.046a77.96 77.96 0 0 0-1.969-.982 91.36 91.36 0 0 0-1.986-.928 73.447 73.447 0 0 0-5.588-2.205 63.134 63.134 0 0 0-5.644-1.663 56.588 56.588 0 0 0-5.646-1.076 46.661 46.661 0 0 0-5.547-.414M46.881 77.123c-3.996-.126-8.055-.782-11.966-1.859-3.92-1.076-7.67-2.575-11.041-4.39-3.367-1.8-6.336-3.898-8.7-6.185-2.357-2.267-4.102-4.706-5.053-7.204-.938-2.468-1.005-4.755-.334-6.78.666-1.997 2.053-3.74 4.032-5.135 1.954-1.38 4.49-2.432 7.487-3.07 2.966-.631 6.387-.86 10.162-.621 3.742.239 7.495.92 11.083 1.948 3.58 1.028 7.013 2.406 10.12 4.043 3.118 1.634 5.92 3.534 8.233 5.608 2.326 2.084 4.163 4.353 5.315 6.715 1.172 2.383 1.544 4.642 1.208 6.693-.335 2.074-1.404 3.927-3.108 5.482-1.727 1.565-4.096 2.812-7.019 3.642-2.953.838-6.458 1.239-10.419 1.113M29.273 36.859c-4.896-.334-9.36-.053-13.246.733-3.932.807-7.281 2.138-9.887 3.91C3.498 43.3 1.62 45.545.678 48.144c-.95 2.644-.933 5.649.25 8.895 1.19 3.297 3.457 6.53 6.54 9.535 3.105 3.038 7.027 5.832 11.486 8.23 4.467 2.405 9.446 4.394 14.647 5.816 5.192 1.423 10.574 2.272 15.853 2.408.04.005.082 0 .12.005.047 0 .083.002.127 0l.123.002c.041 0 .082.006.12.006.761.01 1.514.01 2.252-.008a51.42 51.42 0 0 0 4.24-.27c.677-.074 1.34-.16 1.985-.262 3.426-.535 6.425-1.442 8.936-2.65 2.488-1.198 4.495-2.698 5.968-4.43 1.455-1.707 2.388-3.648 2.75-5.758.355-2.079.146-4.33-.666-6.69a27.38 27.38 0 0 0-.22-.588 10.421 10.421 0 0 0-.242-.6c-.083-.2-.173-.395-.27-.595-.093-.203-.19-.401-.29-.607a25.207 25.207 0 0 0-1.26-2.174c-.154-.24-.319-.476-.48-.715a31.988 31.988 0 0 0-2.21-2.778 38.805 38.805 0 0 0-2.638-2.65 45.927 45.927 0 0 0-3.004-2.51 55.803 55.803 0 0 0-3.344-2.345 63.23 63.23 0 0 0-3.51-2.1 74.632 74.632 0 0 0-1.854-.981 56.702 56.702 0 0 0-1.902-.933 73.421 73.421 0 0 0-5.831-2.431 72.144 72.144 0 0 0-6.16-1.938 68.823 68.823 0 0 0-6.393-1.39 63.338 63.338 0 0 0-6.528-.78M148.305 80.346c-3.28-.098-6.726-.69-10.147-1.66a53 53 0 0 1-9.951-3.974c-3.13-1.637-6.017-3.547-8.45-5.626-2.424-2.074-4.396-4.305-5.727-6.592-1.329-2.265-1.902-4.367-1.817-6.233.09-1.845.825-3.454 2.12-4.755 1.278-1.287 3.113-2.269 5.41-2.88 2.283-.602 5.03-.838 8.163-.638 3.118.193 6.348.804 9.52 1.735a53.892 53.892 0 0 1 9.193 3.685c2.917 1.499 5.634 3.246 7.985 5.15 2.362 1.92 4.367 4.002 5.834 6.177 1.47 2.19 2.27 4.274 2.437 6.158.17 1.907-.298 3.621-1.355 5.042-1.074 1.44-2.74 2.59-4.947 3.357-2.23.776-5.004 1.159-8.268 1.054m-23.326-37.002c-.25-.02-.504-.034-.753-.049-.255-.008-.504-.028-.75-.03-.245-.014-.494-.014-.74-.019-.245-.008-.484-.008-.726-.008-.57 0-1.128.008-1.67.036a35.293 35.293 0 0 0-3.14.28c-.5.07-.99.147-1.466.242-2.259.445-4.235 1.123-5.875 2.025-1.66.915-2.981 2.051-3.925 3.375a9.128 9.128 0 0 0-1.68 4.572c-.155 1.71.136 3.575.891 5.582.085.221.178.458.275.679.1.229.2.457.309.694.113.231.226.462.352.696.123.234.25.476.39.707.108.2.227.396.345.589.118.2.241.393.367.588.126.2.257.396.383.589l.414.583a33.315 33.315 0 0 0 2.838 3.4 43.718 43.718 0 0 0 3.472 3.267 54.871 54.871 0 0 0 4.017 3.076 62.96 62.96 0 0 0 6.356 3.868c.64.34 1.282.671 1.938.998.652.318 1.31.63 1.976.927.668.304 1.342.6 2.017.885 1.65.69 3.331 1.31 5.028 1.868a65.59 65.59 0 0 0 5.106 1.455c1.71.41 3.406.742 5.097.987 1.683.254 3.354.416 4.986.49.077.006.146.013.218.016.072 0 .152.003.221.005.072 0 .157.005.219.005.077.01.151.005.223.013a50.941 50.941 0 0 0 3.202-.041c.512-.03 1.008-.072 1.497-.118.485-.047.963-.103 1.426-.17 2.881-.416 5.315-1.21 7.268-2.303 1.925-1.084 3.372-2.467 4.3-4.081.91-1.596 1.324-3.426 1.195-5.41-.126-1.976-.784-4.107-1.997-6.348-.098-.178-.203-.363-.303-.543-.108-.18-.216-.362-.33-.547-.11-.18-.233-.365-.349-.55-.123-.182-.246-.373-.372-.555-.16-.226-.319-.455-.484-.676-.159-.224-.331-.447-.496-.668-.167-.219-.354-.442-.532-.66a13.08 13.08 0 0 0-.547-.651 35.142 35.142 0 0 0-2.195-2.341 46.488 46.488 0 0 0-2.465-2.247 53.337 53.337 0 0 0-2.7-2.13 61.733 61.733 0 0 0-2.913-2.008 65.81 65.81 0 0 0-1.619-1.017 81.117 81.117 0 0 0-1.67-.972 56.702 56.702 0 0 0-1.712-.935 92.48 92.48 0 0 0-1.745-.89 70.848 70.848 0 0 0-5.606-2.457 66.16 66.16 0 0 0-5.81-1.948 63.064 63.064 0 0 0-5.894-1.385 52.51 52.51 0 0 0-5.862-.74M232.406 83.018c-2.74-.08-5.723-.614-8.75-1.498-3.039-.892-6.115-2.136-9.053-3.634-2.932-1.498-5.705-3.251-8.16-5.163-2.429-1.902-4.518-3.953-6.104-6.066-1.575-2.092-2.488-4.037-2.814-5.767-.314-1.714-.041-3.213.758-4.43.792-1.201 2.105-2.129 3.884-2.705 1.768-.578 4.004-.812 6.659-.645 2.632.165 5.45.715 8.283 1.57a52.653 52.653 0 0 1 8.433 3.39c2.74 1.383 5.369 2.992 7.715 4.755 2.36 1.774 4.449 3.704 6.112 5.716 1.67 2.028 2.755 3.955 3.269 5.7.522 1.761.473 3.35-.126 4.668-.607 1.339-1.763 2.403-3.449 3.117-1.699.717-3.927 1.077-6.657.992m-26.983-34.22a5.858 5.858 0 0 0-.409-.029c-.136-.007-.27-.015-.406-.02-.128 0-.265-.013-.393-.018-.134 0-.26-.008-.386-.008-.488-.01-.963-.01-1.418.003-.463.01-.915.03-1.35.059-.434.036-.86.08-1.277.128-.411.062-.81.124-1.2.198-1.93.368-3.555.987-4.834 1.822-1.288.851-2.239 1.915-2.812 3.17-.581 1.261-.774 2.724-.558 4.34.219 1.635.856 3.426 1.946 5.338.118.208.236.42.367.633.126.208.267.421.406.634.14.219.28.427.432.648.154.216.308.44.473.655.136.183.27.36.411.54.136.18.28.36.427.537.144.185.293.365.447.545.152.185.298.352.46.537.856.974 1.789 1.94 2.794 2.884a52.377 52.377 0 0 0 3.223 2.78 60.338 60.338 0 0 0 3.585 2.64c1.244.851 2.542 1.66 3.873 2.444.578.34 1.157.664 1.74.992.586.327 1.18.638 1.781.941.591.303 1.195.604 1.802.895a68.507 68.507 0 0 0 6.937 2.87 59.835 59.835 0 0 0 5.106 1.553c1.689.434 3.357.776 4.981 1.017 1.627.247 3.208.389 4.737.432 3.585.093 6.5-.403 8.712-1.377 2.18-.967 3.663-2.388 4.41-4.164.738-1.748.767-3.837.042-6.153-.712-2.292-2.156-4.814-4.367-7.45-2.19-2.614-4.927-5.123-7.998-7.413-3.053-2.282-6.466-4.364-10.013-6.152-3.544-1.782-7.248-3.28-10.91-4.39-3.686-1.105-7.333-1.835-10.761-2.061M105.192 31.226c-3.146-.25-6.397-.887-9.584-1.835a54.076 54.076 0 0 1-9.158-3.665c-2.845-1.468-5.417-3.14-7.548-4.932-2.12-1.771-3.79-3.66-4.852-5.564-1.057-1.887-1.401-3.614-1.136-5.105.267-1.49 1.128-2.755 2.5-3.742 1.355-.979 3.218-1.688 5.498-2.071 2.256-.383 4.93-.445 7.936-.136 2.992.308 6.045.96 9.011 1.863a53.631 53.631 0 0 1 8.512 3.428c2.67 1.35 5.115 2.887 7.191 4.544 2.085 1.666 3.799 3.444 4.984 5.269 1.197 1.84 1.74 3.552 1.699 5.073-.047 1.548-.684 2.894-1.859 3.99-1.187 1.107-2.922 1.942-5.13 2.451-2.223.509-4.94.673-8.064.432M86.494.276c-3.92-.416-7.407-.351-10.368.121-2.994.484-5.45 1.386-7.263 2.64-1.835 1.275-3.012 2.91-3.397 4.845-.394 1.955.012 4.215 1.36 6.695a20.455 20.455 0 0 0 2.03 3.012 28.984 28.984 0 0 0 2.755 2.966 41.39 41.39 0 0 0 3.397 2.86 50.886 50.886 0 0 0 3.945 2.686c.532.334 1.075.655 1.627.974.553.316 1.11.625 1.681.938a79.168 79.168 0 0 0 3.529 1.748 72.925 72.925 0 0 0 5.35 2.2 71.093 71.093 0 0 0 5.57 1.763c1.871.506 3.755.933 5.631 1.272 1.869.327 3.73.563 5.554.7.1.01.19.012.28.017.1.008.19.018.286.018.095.01.185.013.275.023.095.003.19.005.28.013.594.028 1.17.046 1.74.054.565.005 1.126 0 1.663-.013a34.401 34.401 0 0 0 3.084-.226c2.495-.3 4.644-.871 6.392-1.676 1.74-.796 3.089-1.814 4.02-3.02a7.095 7.095 0 0 0 1.493-4.088c.059-1.507-.311-3.146-1.16-4.897a9.127 9.127 0 0 0-.254-.498c-.085-.167-.18-.334-.275-.504-.1-.172-.203-.34-.308-.509a6.466 6.466 0 0 0-.332-.514c-.108-.17-.231-.347-.35-.521-.125-.168-.249-.34-.375-.512-.128-.167-.26-.34-.396-.506-.13-.172-.27-.34-.41-.51-1.805-2.158-4.136-4.235-6.842-6.17-2.686-1.912-5.745-3.69-9.027-5.248a70.934 70.934 0 0 0-10.34-3.945C93.766 1.418 90.096.657 86.495.277M186.389 37.58c-2.66-.21-5.503-.785-8.356-1.659a52.394 52.394 0 0 1-8.386-3.369c-2.678-1.354-5.176-2.904-7.332-4.567-2.149-1.653-3.95-3.413-5.251-5.192-1.288-1.77-1.959-3.392-2.064-4.808-.118-1.404.321-2.609 1.241-3.557.915-.944 2.298-1.627 4.105-2.013 1.794-.385 4.014-.47 6.587-.203 2.56.26 5.25.85 7.929 1.681 2.67.83 5.333 1.91 7.849 3.166 2.519 1.26 4.896 2.702 6.985 4.246 2.098 1.553 3.91 3.22 5.29 4.932 1.39 1.725 2.205 3.336 2.493 4.776.293 1.449.04 2.726-.707 3.754-.75 1.052-2.02 1.853-3.755 2.342-1.75.496-3.973.678-6.628.47M164.116 8.54c-3.115-.331-5.824-.272-8.088.111-2.274.401-4.097 1.141-5.397 2.172-1.313 1.04-2.092 2.375-2.285 3.955-.185 1.599.242 3.447 1.347 5.482.085.162.175.321.27.483s.195.327.293.489c.105.162.213.329.331.503.108.16.226.332.345.499.128.172.246.344.375.509.128.167.254.331.393.501.129.167.27.337.411.504.142.17.29.34.432.506.694.792 1.462 1.57 2.287 2.339a44.384 44.384 0 0 0 2.676 2.285 53.383 53.383 0 0 0 3 2.187 61.427 61.427 0 0 0 4.844 2.963c.53.293 1.064.579 1.604.859a81.494 81.494 0 0 0 3.318 1.599 67.972 67.972 0 0 0 9.753 3.543c1.642.45 3.272.825 4.868 1.121a45.62 45.62 0 0 0 4.698.61c.136.004.27.017.411.027.137.003.273.018.409.02.131.009.267.011.398.021.131.008.268.008.394.013a31.893 31.893 0 0 0 2.78-.041c.43-.028.856-.067 1.265-.118.411-.046.804-.103 1.187-.164 2.092-.376 3.778-1.026 5.027-1.92 1.247-.887 2.064-2.002 2.419-3.306.365-1.292.28-2.77-.27-4.384-.547-1.594-1.557-3.326-3.04-5.15-1.823-2.231-4.192-4.395-6.932-6.416-2.72-2.002-5.8-3.865-9.065-5.492a69.112 69.112 0 0 0-10.172-4.104c-3.46-1.09-6.952-1.853-10.286-2.205"/>
  </g>
  <path fill="#2F766D" d="M54.485 183.96q-.184 1.025-.236 1.497 0 4.884.158 9.558.105 5.987.105 9.085l-.053 5.2-.21 1.89q-.053.262-.053.761t-.157.788-.63.289h-5.357q-.42 0-.735-2.206t-.315-2.888q0-.263.105-.893t.105-.945q0-.998-.315-2.889-.368-1.733-.368-2.993l.053-.63-.21-.21q-.473.052-4.753.131t-8.114.079q-.525.315-.525 2.783 0 1.156.105 2.836l.053 1.628q0 1.733-.263 4.175t-.893 2.442q-1.995-.368-3.676-.368-1.733 0-3.15.368-.368 0-.368-.21V206.2q0-.473-.158-1.26-.262-1.839-.262-2.469l.262-1.05-.262-.578-.053-3.518q0-.735.053-1.287t.105-.919q.157-1.05.157-2.1 0-.21-.131-.447t-.131-.551q0-.525.105-1.576.157-.893.157-1.733 0-.42-.184-1.076t-.446-.762q.21-.262.368-1.155t.315-1.89q.262-2.101.551-3.23t.814-1.13h6.197l.42.21q.263 0 .263 8.245l-.053 2.049q0 1.575.42 1.943.525 0 1.47-.105t1.524-.105q1.523 0 4.463.315t4.412.315l.577-.053.21-.367q-.157 0-.157-.578 0-.893.158-1.523l.21-5.357q0-.052-.105-.656t-.105-1.55q0-1.627.84-2.205l.63.053q.525 0 1.47-.105 1.05-.105 1.628-.105.946 0 2.311.157t1.68.63q.158.788.158 1.576 0 .682-.184 1.707zm-28.437-4.096q-.105.184-.105.657t-.315.577q.21.158.315.42t.105.42q.315-.472 1.313-.787.893-.21 1.208-.683-.42 0-1.182-.052t-.814-.105v-.63q-.42 0-.525.183zm-.315 16.411q.053.053.525-.42v.63q3.099-1.627 3.204-1.627t.472-.342.578-.341q.052 0 .131.105t.132.105q0-.263.603-.499t1.077-.368.683-.183q.945-.21 1.208-.368-.946.105-1.26.105-.841 0-1.419-.525-.262 0-2.153 1.313t-2.836 1.995q0-.367.552-.787t1.654-1.103q1.05-.63 1.602-1.077t.551-.761q0-.42-.315-.42-.21.21-.525.21.525-.788.578-.84v.21q1.05-.526 1.05-1.681-.683 0-1.392.551t-.866.71h-.42v-.368q.577 0 .892-.525.21-.316.42-.447t.578-.131v-.21h-.42q.052-.315.473-.473t.577-.367q0-1.628-.157-5.41-.053-.525-.053-1.155 0-.367.079-.761t.131-.552q0-.157-.21-.157l-2.31.157q-.21.158-1.681 1.024t-1.628 1.497q.42 0 .867-.236t.866-.5q1.103-.892 2.048-.892.263 0 .473.053t.315.052v.315l-1.418 1.418q-.263.21-.998.63-.105.053-.604.342t-.709.656q0-.63.342-.998t1.076-.787q.105-.053.578-.342t.683-.761q-.368.157-1.103.367-1.26.42-1.917.893t-.657 1.47h.526q0 .368-.315.92t-.316 2.914q0 1.47.053 1.523l.21.21q.263-.262.709-.551t.761-.5q.368 0 1.182-.682t1.024-.84q.263-.263.893-.735h-.42v-.21l-.63.42q.052-.315.315-.473t.551-.236.394-.132v.263q.052-.105.184-.184t.236-.079q.053 0 .131.08t.08.183q0 .263-2.18 1.996t-2.81 2.1q0 .105.158.105.052 0 .236-.105t.446-.105q0 .683-1.47.683v3.36q-.263.526-.263 1.104t.368.577zm23.212-13.286q-.998.42-1.576.814t-.577 1.13q0 1.154.42 1.627.262-.788.866-1.26t1.707-1.103q1.576-.84 2.206-1.628l.157.42q0 .315-.42.63t-1.313.735q-.997.473-1.628.867t-.997.919q.315 0 .787-.131t.735-.132.368.263l-2.468.998v1.68l.367-.184.473-.288-.42.682q.683-.42 1.313-1.05l.735-.735q.788-.84 1.392-1.366t1.339-.787l-.42-.42.577-.42.21.157q.473-.105.473-1.628l-.052-1.26-.21-.158q-.42-.473-2.101-.473-1.89 0-2.915.263t-1.024 1.26l.053.998q.315-.21 1.155-.473 1.208-.42 1.733-.735l.053.158q0 .262-.998.63zm2.048-1.05q-.42.262-.578.42 0-1.05.736-1.05.315 0 .42.21-.158.157-.578.42zm.578.84q-.42.21-1.47.683t-1.891.787q0-.42 1.391-1.05t1.97-.63v.21zm-20.219 1.208q0 .525-1.47 1.707t-1.996 1.181v1.05q-.525 0-.788.263v-.21l-.42.21.21.158q-.262.262-.892.262.052-.578.709-1.181t1.864-1.55q.683-.472 1.208-.997l-.053-.053-.157-.052q-.263 0-.578.315 0-.053-.053-.105l-.052-.053q.052-.052.315-.289t.368-.394l.21.158.21-.42h1.365zm21.82 26.704q.132-.92.132-1.602 0-.945-.315-1.418-.263.158-1.47 1.26-1.156 1.051-2.049 1.629 0-.21.84-1.182t1.418-1.287q-.472.105-1.208.526t-1.26.945h-.63v-.42l.42.157v-.63l2.258-2.258q0 .42-.499.866t-.499.814q.84-.21 1.89-.919t1.051-1.391l-.052-.158q-1.05.473-1.628 1.208 0-.368.262-.709t.578-.499q-.263-.105-.263-.472 0-.21.158-.29t.499-.13.394-.368q0-.21-.158-.578t-.262-.472q-.893.315-1.208.84l-.053-.21q0-.525.893-1.05-.158 0-.394.104t-.446.105q-.053 0-.158-.078t-.105-.132q.683-.42 1.103-.42.315 0 .368.21.105-.157.236-.814t.184-1.024q0-.157-.08-.341t-.13-.289q-.105.525-1.47 1.444t-1.419 1.024l-.21-.21q.21-.052 1.182-1.05t1.076-1.208q-.577.263-1.024.42t-.604.21q0-.998 2.469-1.155v-1.838q-.21 0-.526.289t-.63.289q0-.158.263-.473t.315-.473q-.578 0-1.576.5t-1.155 1.18l-.21-.21q-.315.368-.551.5t-.71.13q.053-.262.263-.472t.42-.21l.158.053q2.416-1.89 3.729-1.89.157-.473.262-.946t.158-.683q0-.157-.08-.341t-.13-.289l-.368.368-.63.63-1.26 1.26-.053-.262q0-.316.368-.63t.367-.526h-.473l-2.52 1.26v-.42h.21q1.313-.787 2.258-1.26t1.89-.63q.053-.158.132-.84t.079-1.05q0-.106-.08-.316t-.13-.262q-.63.472-2.679 2.258-1.575 1.47-2.468 2.1-.42 0-.578.394t-.472.447l-.053-.263q0-.525.84-.998l.263.158q0-.42 1.313-1.418.21-.158.735-.63t.63-.788q-.787 0-1.628.525t-1.943 1.47q-1.208 1.103-1.628 1.103l-.21-.262q-.157.105-.788.735t-1.102.92-1.208.288l-.42-.053.42-.42.21.21q0-.577 1.155-.577.263 0 .867-.473t1.286-1.05q1.208-1.05 1.917-1.576t1.182-.525l.21.053 1.418-.788q.262-.158.892-.473t1.839-.997l-.053-.526q0-.577.105-1.628.158-.892.158-1.995-.316.788-1.576 1.496t-2.048.71q0-.316.578-.92t.997-.656q.158.052.29.236t.13.342q.368-.683.578-.893t.84-.525q.21-1.05.21-2.469-.367.42-.997 1.05t-1.05.999q-.263.21-.893.63t-1.05.788-.42.63h.367q0 .21.052.315t.053.157q-.21.105-.893.342t-.945.236l-.368-.21v1.05l1.996-1.05v.21l-1.05 1.05q0-.052-.053-.131t-.105-.079q-.105 0-.236.079t-.184.131l.157.21q-.42.736-.42 1.05 0 .578.578.578.683 0 1.602-.682t2.18-1.838q1.154-.946 1.26-.998 0 1.155-1.418 1.68v.263q.262 0 .682-.131t.735-.132l-.157.42-1.47.63q-1.208.368-2.495 1.156t-2.915 1.943q0-.998-.21-1.47l-.262.052q-.158 0-.525-.105t-.578-.105q-.315 0-1.34.893t-1.39 1.365v-.42l1.207-1.155h-.63q-.683.998-2.889 1.785v-.42q.158-.157.526-.394t.735-.446q.157-.053 1.365-.604t1.208-.814q-.315 0-.893-.105t-.998-.105q-.367 0-1.155.814t-.998 1.024l-1.05.683q-.105.052-.604.341t-.866.814q0-.473.341-.761t.971-.552q1.05-.472 1.05-.945l-.052-.21-2.415 1.26q0-.157-.053-.289t-.052-.183q0-.158.472-.368l3.046-1.47q-.21-.053-1.129-.237t-1.234-.184q-.368 0-2.337 1.838t-1.97 1.996q.526 0 1.366-.63t1.365-.63v.367l-.42-.21.053.315q-.105.053-.71.525t-1.18.63q-.316.053-.841.605t-.945.55q0-.367.367-.577-.577 0-1.943.63-.21.105-.709.29t-.761.183l-.158-.052q-.262.157-.577.315t-.473.21q-.945.367-1.34.945t-.393 2.258q0 1.786.525 2.52.21-.157.552-.734t.708-.578q-.262.053-.262.473 0 .157.052.21l-1.26 1.208q.525-.21 1.05-.578-.367.263-.604.656t-.236.71.053 1.338.157 1.655q.105-.368.63-.893 0 .158-.13.446t-.132.447q.84-.21 2.415-.946 1.313-.682 2.206-.945.21.053.21.368 0 .367-.236.604t-.683.472-.761.447q.21-.683.84-.893l-.42-.158-2.889 1.208q-.157 0-.55.184t-.5.236v2.311q1.418.21 3.834.21l1.155-.052.42-2.206-.21-.053q-.472 0-1.05.263t-.683.315q-.945.473-1.418.473-.315 0-.42-.21 0 .42-.105.42t-.184-.079-.236-.079q0-.315.158-.499t.603-.446.604-.525l.053.157q0 .42-.473.84.578 0 1.838-.735.158-.105.657-.34t.866-.342q.315-.893.315-1.89 0-.631-.052-1.104t-.053-.787q-.262.157-.761.525t-.71.525l-.052-.21q0-.21.263-.447t.263-.393q-.736 0-1.839.63t-1.26.63q-.473 0-.473-.21.053-.105.447-.604t.499-.656q0 .052.052.078t.053.08q0 .157-.105.262t-.105.262.42.158q.105-.053.289-.158t.289-.21l2.73-1.26v-1.26q-.21.21-.735.577t-.735.683q0-.42.131-.604t.447-.394.472-.473q-.367 0-.788.158t-.892.157l-.053-.157q.42-.105 1.392-.473t.971-.525v-1.47q-.157.157-.341.21l-.184.052q-.367 0-.787.263t-.526.315l-1.102.63q.157-.473.498-.735t.972-.578q.105-.052.578-.315t.682-.63H31.3q0-.42.131-.551t.446-.237.63-.262h2.889q.42.315.683.315.21 0 .525-.315 4.253 0 5.278-.027t1.129-.026q.682-.052 2.757-.735t2.284-1.05q0 .262-.551.656t-.71.551q1.051.21 1.051 2.574 0 2.415-.21 2.626l.42-.21v1.05q.053-.105.184-.158t.184-.052q.157 0 .157.157t-.157.42l.84-.367.052.157q0 .105-.577.762t-.578 1.076q.053.105.131.237t.132.236q0 .263-.184.84t-.184.788q0 .945.158 1.864t.63 1.287q.052-.053.21-.289t.368-.236q.052 0 .472.105.368-.263 1.313-.867t1.313-.604l.131.08.132.13q-.263.473-.71.71t-1.286.498q-1.523.42-1.943 1.103.735.315 1.943.315 1.68 0 2.206-.315.052-.42.183-1.34zM28.57 185.09l-1.05.367q.157-.157.498-.367t.552-.263v.263zm22.161.157.84-.42q0 .21-.13.341t-.342.132zm-23.211 5.2v-.21q.262-.158 1.024-.5t1.076-.341q0 .578-2.1 1.05zm23.474-.736.158.105q-.683.473-1.05.473l-.21-.053zm-2.363.735h.63v.21q-.158.053-.315.079t-.315.131v-.42zm-22.214 3.466q-.158-.105-.158-.42t.473-.63l.472-.315q.158 0 .604-.63t.762-.893q.052.052.184.157t.288.158q-.105.105-.892.84t-.788.945l2.416-1.102v.262q0 .21-1.208.867t-1.68.866q-.316 0-.473-.105zm.105 4.254q.052.052.052.105 0 .315-.525.893.578-.158 1.26-.552t1.05-.604q.946-.42 2.89-1.05l1.26-.473q.472-.787 1.601-1.864t1.287-1.234v-.263q-.105.053-.893.368t-1.418.473q-.157.052-.42.367t-.42.315q-.105 0-.158-.052-.787.525-.892.578-1.418 1.05-1.786 1.05 0-.263.289-.552t.735-.577.604-.5h-.262l-3.467 1.891q-.21.316-.682.5t-.735.314-.263.394q0 .946.42 1.05.158-.63.368-.63.052 0 .105.053zm17.645-3.361q0-.63.525-.63.105 0 .236.079t.184.13q-.262.421-.945.421zm-1.234.341q.499-.341.919-.341-.525.42-1.786 1.287t-1.365.866q0-.42.473-.761t.945-.552q.315-.157.814-.499zm-4.385.71q0 .367-.867.918t-1.811.998-1.313.552h-.263q0-.84 1.523-1.681l.21.42q.368-.157 1.418-.63t1.05-.788zm.446 1.443q.237-.288.447-.55.367-.526.63-.789t.735-.315q-.105.368-.368.604t-.393.473-.132.761q-.105 0-.341.158t-.867.472l-.21-.42q.263-.105.5-.394zm-10.004-.236-.42-.578.157-.052q.315 0 .42.21zm6.407.447q.157-.184.157-.447-.472.105-.577.63.262 0 .42-.183zm14.363.63q-.289.499-.762.499 0-.368.42-.736t.473-.577q0 .052.105.131t.105.131q-.052.053-.341.552zm-19.142.262q.263-.394.42-.499 0 .578-.761 1.26t-1.392.683q0-.367.525-.682t.578-.63l.21.42q.157-.158.42-.552zm20.323.972.368-.63.263.21q-.158.42-.63.42zm-22.949 1.68q.263-.105.63-.315 2.154-.84 2.154-1.365v.63q-.106.053-.788.42t-.998.42l-2.1.998h-.683q0-.157.341-.446t.551-.394q.105 0 .237.079t.184.183q.21-.105.472-.21zm-.026-.499q-.184.29-.446.29 0-.473.63-.841 0 .263-.184.551zm21.505.814q-.263 0-.709.263t-.709.263l.158-.21q.157-.526.42-.526v.21q.262 0 .446-.13t.394-.237v.367zm-21.111 1.445q-.42.341-.735.341-.21 0-.21-.105 0-.21 1.575-.998-.21.42-.63.762zm21.216 1.155q-.105-.026-.105-.079.21-.367.63-.577t.84-.21q-.262.262-.682.577t-.525.315q-.053 0-.158-.026zm-20.98-.105q.236-.394.552-.394h.21l-1.05.893q.052-.105.288-.5zm.131 1.76q0-.263.42-.815t.84-.866v.42zm22.11-1.104q0-.525.315-.577v.577h-.316zm-22.95-.157q-.21.42-.683.42 0-.42.683-.42zm.578 3.15q-.315.21-.42.263 0-.367.184-.525t.656-.157q-.105.21-.42.42zm55.771 3.834q0 1.156-1.26 1.523t-3.203.368q-1.103 0-3.099-.105-1.785-.105-2.836-.105-.63 0-1.733.079t-1.733.13q-.472 0-1.523-.21-.21-.052-.814-.157t-1.129-.105q-.998 0-2.205.263-1.47.21-2.049.21-.997 0-.997-2.468l-.053-.736q0-.577.21-.945v-6.04q.053-.21.131-.603l.132-.656-.263-1.628q0-.946.105-3.151.158-1.733.158-3.414v-.21q0-.42-.263-.683 0-1.313-.21-3.833-.052-.578-.105-1.733t-.052-1.996q0-.473.078-.919t.08-.656q.21-.946.21-1.68 0-.21-.08-.5t-.078-.394q0-.42.367-.814t.473-.551l.578.053q.577 0 1.523-.106.787-.157 1.733-.157.052 0 .13.105t.132.105q.578-.84 8.403-.84 2.1 0 3.807.052t3.755.21q.367.158.472 1.13t.106 2.651q0 1.418.236 1.838t.236.578-.131.447-.289.393q-3.519 0-8.297-.63-.893.683-2.994.683l-1.365-.053q-.788 0-.998.158v6.46h10.346q.105 0 .262.104t.21.21q0 .105-.262.552t-.263.656q0 .105.341.762t.342 1.181v.578q0 2.258-.63 2.573-1.208.158-2.101.21t-1.89.053q-1.944 0-3.73-.158-2.415-.105-3.675-.105l.42.84q-.053.473-.237 2.022t-.183 2.652q0 .42.131.71t.184.603q0 .683.236.893t.867.21q3.098 0 6.932-.262 4.621-.21 6.932-.21.315 0 .315.367 0 .158-.053.263v3.36zm-2.652-31.483q-.184-.236-.709-.236-1.89 0-3.308.263t-2.836.997q0 .053-.499.736t-1.234 1.102q-.053-.052-.184-.105t-.236-.052q-.053 0-.184.236t-.184.342h.368l-.998 1.26q.683-.158 1.418-.578t1.05-.84l.263.158q.63-.63 1.523-1.05t1.313-.42l.21.052-.998.997q-.21.158-.683.578t-.945.893l.42.42q.21 0 1.13.105t1.39.105q.316 0 1.051-.63.788-.578.945-.63.158.105.184.236t.027.184q.42-.158 1.155-.735t.945-.578v-.368l-.84.42q.262-.42.446-1.05t.184-1.103-.184-.709zm-18.774 7.799q.105.105.21.105.053-.21.263-.525t.262-.315q.42 0 .42.052t-.105.131-.157.237q.262 0 .551-.132t.5-.13l-.421.42q-.105.157-.683.524t-.577.526v1.89q.21-.157.498-.446t.29-.5q-.21 0-.395-.13t-.183-.342q0-.157.971-.682t1.182-.526l-.053.316q0 .157.21.21-.157.105-.551.288t-.683.394-.289.473l.053.315.42-.42.053.21q0 .263-.394.473t-.5.367q.316 0 .999-.315t1.05-.315v.21q-.263.158-1.155.578t-1.208.893-.315 1.207q.105-.052.262-.236t.158-.394q1.365-.893 1.838-1.234t.525-.341q.315 0 .315-.63v-.263q.053 0 .131.105t.08.158q.157-.106.524-.473t.525-.683l.63.473q-.367.472-1.627 1.208-.893.525-1.418.919t-.683.971q.052-.105.184-.157t.236-.053q.053 0 .131.053t.08.157q-.21.158-.762.578t-.92.63v.893q.158-.053.42-.368t.368-.315q.053 0 .71-.472t2.441-1.786q-.367.105-.787.236t-.683.184q.105-.578 1.313-.788.577-.105.866-.236t.342-.394q.262-.893.262-2.993-.105-.053-.315-.053-.315 0-.945.237t-.788.236q-.262 0-.262-.263.21-.315.971-.656t1.182-.341v-.946q-.473.42-1.208.42-.368 0-.735-.21.682-.42 1.102-.63t.762-.446.341-.394l-.157-.21.735-.762q.683-.709 1.313-.709-.368.368-.788.998.105-.052.814-.236t.709-.289q0 .053-.551.42t-1.392.998q.368.21 1.208.21l1.26-1.26v-.21l-.21-.21q0-.368.263-.526t.84-.367.578-.473q0-.105 1.024-.84t1.234-.893l.21-.21H73.68q-.263 0-1.208 1.05-1.68 1.523-1.628 1.47-.105-.052-.21-.262t-.105-.367l-.578.84q0-.683.21-.867t.788-.183v.367q.262-.157.473-.42t.262-.368h-.735q.63-.735 1.26-1.05-.157-.21-.577-.21h-.263q-.84.105-2.153.236t-2.363.184q-.21.683-2.258 2.52-1.313 1.209-1.313 1.419.367-.21.84-.21-.105.21-.788.525t-.683.525v2.468zm-.158-6.512q0 .368.132.578t.499.21q.105 0 1.391-.683t1.34-.788q-1.26 0-1.681-.42-.21 0-.656.21t-.604.21l-.42-.21v.893zm6.906-.446q-.236.236-.499.393 0-.892.736-.892 0 .262-.237.499zm8.823.367q-.71.236-1.077.289 0-.473.63-.709t1.156-.236v.262q0 .158-.71.394zm-9.9.657v-.21q0-.316.158-.42l.053.21q0 .315-.21.42zm-5.829 2.258q.788-.42 1.628-1.13t.893-1.338q-.42.105-1.024.393t-.761.394q-.525 0-.657.184t-.131.867zm3.782-.63.997-1.05-.21-.158q.315-.473.84-.63-.472 1.207-1.627 2.258v-.42zm1.207.525q-.472.367-1.601 1.26t-1.497 1.366l-.053-.263q0-.525.368-.525 0-.053.053-.184t.052-.394-.21-.315q.368-.105.762-.525t.498-.525v.367q.526 0 .946-.21t1.155-.735q.683-.578 1.418-.893 0 .158-1.89 1.576zm-.787-1.313q-.053.052-1.05.656t-1.261.604v-.262q.315-.158.945-.578.105-.053.525-.315t.84-.368v.263zm11.737.052q.236-.105.551-.105l.368.053q-.21.052-.578.236t-.577.184q0-.263.236-.368zm-5.12 2.048q.472-.157.945-.525t.735-.577l-.42-.21q.42-.105.656-.263t.342-.525l-1.05.683q-.84.525-1.734 1.05t-1.365.525q1.418 0 1.89-.158zm-2.206-1.47zm10.766.315q-.578 0-1.655.447t-1.286.866l.42.21h2.206q.315 0 .315-1.103v-.42zm-15.492 9.69q.787-.5 1.102-.5 0 .158-.21.368l.473-.236.315-.5.053-1.05q-.158.053-1.68 1.05t-1.629 1.156q-.21.368-1.155 1.313l-.735.84q0 .263.078.473t.08.315q.157-.105 1.338-1.05t1.182-1.156q0-.525.788-1.024zm-1.576-.92zm2.258 3.309h-.367l.367-.21q-.052-.21-.262-.21l-.315.052q0-.262.63-.788t.998-.525v.263q.367 0 .367-.263v.21q0 .263-.157.42.262 0 .42-.183t.157-.342q0-.315-.288-.63t-.5-.315-1.234.866-1.286 1.287l.262.158q.158.052.158.105 0 .21-.867.551t-1.076.446q-1.155.368-1.155.526 0 .21.13.341t.237.131q.473 0 1.156-.682.315-.263.682-.5t.683-.236q0 .473-.525.946t-1.103.892-.84.578h-.42v1.576q.472 0 1.207-.71t.893-.866q.788-.473 1.943-1.155t1.943-1.103q.263-.315 1.208-.893.945-.525 1.313-.945-.21 0-.446.052t-.342.105q.315-.472 1.208-.787h-1.628zm0-2.521q-.105.052-.42.184t-.499.367-.184.5q.473 0 .814-.237t.342-.656zm5.436 1.26q-.657.63-.657.683.42 0 1.68-.473 0 .105-1.338.84t-1.602.736q0-.263.394-.552t.446-.34h-.63q-.158.104-.893.603t-.735.604l.079.026.183.026q.316 0 .788-.262-.262.368-.919.709t-1.864.814q-1.418.525-2.127.919t-.709.919q.21-.158.893-.63t1.208-.473l.157.315q0 .473-.761.972t-1.497.814q0-.263.263-.394t.367-.447q-.262 0-.63.21-.42 0-.42-.21-.263.21-.656.604t-.604.657q.42 0 .682-.105t.578-.315q-.158.42-.604.682t-.656.526h.63q-.263.262-.342.656t-.078 1.024q.997-.315 1.68-1.26 0 .052-.105.551t-.105.71q-1.68.84-1.68.997v.262q0 .368.078.92l.132.918q.42 0 1.523-.735.577-.315 1.181-.63t1.024-.315l.21.052q.105-.525.263-1.601t.157-1.97q-.052-.157-.236-.367t-.341-.21q-.315 0-2.994 1.208l-.157.052q.052-.315.814-.788t1.024-.472q.105 0 .184.052t.078.158q0-.315.237-.447t.814-.236.577-.367v-1.47l.42-.211q1.523 0 4.57.105 2.31.158 4.568.158 1.208 0 1.89-.42l-.262-.263q.473 0 .604-.473t.131-1.26q-.997 0-1.916.394t-1.733.893-1.182.708h-.42q-.578 0-.63-.262.577-.788 1.549-1.523t1.707-.735v-.42q-.473 0-1.182.34t-1.444.762q-2.31 1.366-3.466 1.366 0-.525.236-.552t.289-.446q1.523-.735 2.1-1.365t1.103-1.838h-.892q-.368.262-1.024.892zm3.413-.499q-.131.342-.341.342l-1.418.998q-1.418 1.05-2.52 1.68.63 0 1.89-.788.735-.472 1.05-.472l2.888-1.208q.21 0 .604-.105t.604-.105v.367q0 .263-.472.552t-1.05.604q-1.051.472-1.55.814t-.499.814q.473 0 .735-.184t.473-.394l.315-.315q.368-.368 1.208-.473.788-.157 1.155-.499t.368-1.444q0-.525-.263-.525h-2.888q-.158 0-.289.341zm-5.278.71zm-4.332 7.535q-.657.394-1.077.394.053-.472.657-.866t1.076-.394q0 .473-.656.866zm-2.705 2.968q.315-.316.893-.683.945-.683 1.103-.998h-.578l.42-.525h1.418q-.157.525-.577.866t-1.208.867q-.473.21-.893.578-.053.21-.315.525t-.525.472q-.053-.052-.053-.42t.315-.682zm2.994 4.568q.63-.42.892-.735l-.315-.052q-.525 0-1.102.577-.63.525-1.05.525.21-.367.577-.577t.788-.368q.105-.052.604-.289t.708-.656l-.42-.42-2.993 2.048v.84q-.158-.052-.315-.184t-.42-.236l1.05-.998 2.1-1.68-1.26.63-.21-.053v-.367q.578-.053.998-.5t.84-.55v-1.26q-.157.42-.577.787t-.893.472v-.21q0-.262.262-.367l-.262-.053q-.42 0-1.55.604t-1.128 1.077q0 .157.078.341t.132.289q.157-.368.472-.656t.683-.5q.578-.262.945-.682 0 .315-.262.578t-.762.656-.656.604h.63v.21q-.158.105-.656.473t-.71.735-.21.84h1.05q0 .053.053.158t.053.21q0 .052-.21.236t-.42.236q-.105-.262-.42-.262 0 .84.42 1.103.472-.158.997-.342t1.103-.289q.21-.105.263-.525t.105-.525q.262-.367.998-.893zm14.231.237q.84-.5 1.523-1.182t.683-1.26l-3.308.42q-.105.052-.814.656t-1.024.604q-1.103 1.05-1.47 1.444t-.369.447q.158 0 .71-.42t.813-.578q1.208-.945 1.996-1.444t1.313-.5q.105 0 .236.106t.289.105q0 .315-.525.972t-1.155 1.129q.262 0 1.102-.5zm-5.041-2.022q-.368.367-1.523 1.208-1.365.945-1.838 1.47.63-.052 1.287-.446t1.496-1.024q.21-.105.84-.525t.998-.473v-.21h-1.26zm-3.519.735q-.682.315-.997.551t-.316.604q.526 0 1.34-.604t1.076-1.076q-.367.21-1.103.525zm3.178 2.705q.026-.604.13-.762l1.629-1.628-.263-.052q-.577 0-1.181.367t-1.55 1.103q-.262.158-.814.551t-.971.578-.735.184q-.736 0-.736-.315 0-.473 1.103-1.208t1.208-.788v-.262q-.893 0-3.886 2.31h-.578q0-.997 1.996-2.258v-.21q-.788.473-1.68.84-1.313.526-2.049 1.05v-.735q.736 0 2.731-1.365-.315-.262-.63-.262-.578 0-1.26.498t-1.182 1.024-.709.683h.578l.105.315-.42.42q2.678.683 6.301.683l2.574-.052q.262-.105.289-.71zm5.829.735q1.549-.342 1.549-1.602 0-.42-.079-.656t-.341-.237l-3.939 2.259h-.262q-.578 0-.578-.316.63-.105 1.234-.761t.814-1.444q-.578.105-4.096 2.73.367.21.63.29t.945.078h.525q2.049 0 3.598-.341zm27.886-6.512q.236.131.236.394v5.619q0 .525-.368.866t-.735.342l-2.783-.105q-2.153 0-3.099.157l-1.26.053q0-.105-1.523-.21l-2.73-.21q-1.104 0-2.207.315t-1.102.367q-.893 0-2.048-.262-1.366-.21-1.996-.21 0-.998-.21-3.099-.21-2.205-.21-3.36l.026-.21.026-1.051q0-1.26-.052-2.363l-.263-.263v-8.612q-.262-1.576-.262-2.784 0-1.155.262-1.47v-4.884q-.157-.105-.157-.893v-.788q0-1.628-.263-2.73l-.157-.21q0-.526 1.628-.867t4.463-.341q.42 0 .683.236t.263.551q0 .578-.158 1.366-.367 1.943-.367 3.676 0 .052-.106 1.812t-.315 3.072l.315.262v6.302q.316.578.552 2.6t.289 2.494q.262 2.521.472 3.86t.526 1.654q.21.106.525.21t.525.158l1.89-.052q2.206-.158 6.092-.158.21-.052.552-.105t.551-.053q.998-.052 1.47-.262t.526-.945q.262 0 .499.13zM93.74 179.68q-.315 0-1.234.367t-.92.473v.21l1.891-.63.263.21v-.63zm-3.729.708q-.157.5-.157 1.025.525-.578 1.129-.92t1.024-.603h-1.68q-.158 0-.316.498zm3.046.552.263.262-.998.736q-.998.787-1.786 1.103l.42.052q.315 0 .814-.21t.814-.21q.263 0 .5.184t.236.394q0 .525-.526.892t-1.418.736q-.42.157-.735.367t-.315.368v.21h.525q0 .21-.394.446t-.393.604q0 .21.13.42t.237.263q.42 0 1.182-.63t.971-.946h-1.208v-.367h1.891l.053.21-.263.577q-.21.21-.998.736t-1.103.787q0 .105-.157.184t-.263.079v.315h2.521v.735q-.683.315-1.576 1.103t-.945.945q.368-.105 1.13-.183t1.312-.263.762-.551q-.263-.84-.263-2.206 0-.315.263-.368-.053-.262-.053-.735 0-.893.21-2.573.21-1.786.21-2.52 0-.106-.21-.316.105-.263.158-.761t.052-.71q-.472.683-1.05.84zm-3.203 1.733q1.365 0 2.573-1.733-.525 0-1.208.578-.053.052-.473.315t-.892.262v.578zm.288 2.048q.08.315.184.473.21-.21.447-.394t.34-.29l.316.053q.263 0 .788-.577t.84-.735q-.42 0-1.707.315t-1.286.577.078.578zm.42 5.724q.237-.262.5-.446t.367-.237q.735-.472.998-.84-1.156 0-1.76.21t-.603.893q0 .788.262 1.103 0-.42.236-.683zm.92 1.76q1.365-.71 1.838-.71-.21.158-1.418 1.025t-1.208 1.181q.577 0 1.628-.42-.473.63-1.996 1.418v3.781q.263-.263.735-.683t.526-.367l.21.262q.472-.682 1.68-1.523-.42 0-.814.105t-.551.158q-.63.263-1.208.263 0-.105-.079-.237t-.079-.236q0-.473 2.1-2.1l.894-.736q-.158 0-.5.236t-.656.237l-.157-.053q.21-.63 1.05-.84v-1.733q-1.208 0-2.416.289t-1.207 1.076l.157.158.105.262q0-.105 1.365-.814zm2.205 2.546q0-.367.053-.525-.315.158-.42.683l-.263-.21-1.05 1.05v.263q.42 0 1.102-.21t.788-.263q-.21-.262-.21-.788zm-3.413 5.987q0 .998.262 1.523l3.361-3.36v-.42q-.42.21-.735.21 0-.263.368-.395t.367-.394q0-.525-.525-.525-.683 0-1.628.657t-1.05 1.181q.42 0 .945-.341t.945-.341q0 .682-1.05 1.05t-1.208.42zm3.623-.998-2.1 1.944h-.21v.42l2.73-1.26.053-.368q0-.736-.473-.736zm-3.36 4.622q.314 0 .42.262l.21-.262q.42 0 .42.367 0 .21-.263.526t-.578.472v1.47q.368 0 .604-.183t.552-.578.525-.551q0 .315-.21.682t-.21.578l.997-.42q.998-.315 1.733-.84l.21.42v-1.523q-.367 0-1.129.525t-.919.84v-.42q1.838-1.155 1.838-1.523-.052.053-.21.053t-.341-.105-.289-.158q.263-.367.63-.42v-1.313q-.157.158-.499.368t-.55.315q-1.156.63-1.261.84v-.42q.84-.63 1.89-1.68l-.315-.053q-.788 0-2.205.893-.21.105-.63.184t-.42.236v1.418zm2.52-.158v.21l-.84.42v-.42zm.105 2.862q-.998.342-1.733.788t-.735.92q0 .944.42 1.102.262-.42.998-1.155t1.05-.736l.158.053 1.207-1.47q-.367.157-1.365.498zm-.63 4.464q.367-.499.788-.499l-.42-.262q.052-.158 1.522-1.313Q96 208.3 96 208.09l-.105-.157q-.158.052-.473.236t-.472.237q0-.158.315-.5t.367-.446q-.052-.315-.315-.525t-.367-.21q-.316.315-1.103 1.26t-.788 1.103l1.05-.682-.367.682-2.364 1.47v-.262q-.367.315-.525.525t-.157.525q0 .683.998.683.472 0 .84-.499zm10.03-.157q.105-.237.21-.342l2.731-2.783q.105-.105.236-.499t.184-.604l-.42.42q-.262-.105-.788-.105-.735 0-1.312.42t-1.208 1.208l-.263-.21.63-.63q-.367-.263-.367-.683h-1.523q0-.052-.08-.131t-.183-.079q-.052.053-.21.158t-.21.157h-2.678q-.42.683-1.13 1.156t-.813.577q-1.05.63-1.68 1.313l.078.053.184.052q.262 0 .367-.262 0 .525-1.26 1.05v.263q1.575 0 2.468-.447t2.153-1.497q.578-.577 1.523-1.26-.21 0-1.47.42.315-.42.945-.709t1.155-.289v.316q-.945 1.102-1.496 1.654t-.92.814-.367.525h2.941l-.158-.21v-.525q.21 0 .342-.29t.341-.288q.105 0 .184.079t.184.131q.315 0 .709-.184t.604-.394v.42q-.105.158-.814.447t-.972.814l1.943.21q.105 0 .21-.236zm5.672-3.309q.263-.394.263-.761h-.63q-.736 0-1.103.131t-.368.604l-2.52 2.73 3.78-2.1q.315-.21.578-.604zm.079 2.547q-.08-.105-.08-.262t.106-.394.105-.447q0-.63-.42-.63l-3.991 2.31-.158.421q.42-.21 1.155-.21.84 0 1.681.105.735.105 1.155.105.263 0 .42-.263t.158-.577q-.053-.053-.131-.158zm-6.538-1.418q0 .263-.158.42t-.368.315q-.157 0-.367-.21.262-.525.893-.525zm37.023-22.581q.84 4.096 1.05 4.726 0 .052-.131.315t-.131.525q-1.313 4.359-2.6 6.38t-2.967 2.705-4.989.998q-.998.263-7.09.263-.157.052-.288.893t-.132 1.365q.053 0 .132.079l.131.131q-.105.578-.368 2.416t-.315 2.993q.105 0 .158.053t.052.105q0 .735-.289 1.628t-.814.892q-.157 0-.708-.236t-.762-.236q-.683 0-1.575.262-1.156.21-1.628.21l-1.208-.42q-.053-.052-.158-.262t-.105-.368q-.105-2.678-.131-3.177t-.026-.552q0-.262.078-.498t.08-.5q0-.682-.106-1.942t-.105-1.89q0-.841.079-1.603t.131-1.024q0-.262-.105-.604t-.105-.709q0-.735.263-4.936.157-1.68.157-2.258 0-.63-.105-1.786-.105-1.365-.105-2.415 0-1.47.42-1.576-.21-.052-.21-.525 0-.21.105-.446t.105-.394q0-.105-.131-.263t-.131-.315l.052-.158q.683-.682.683-1.838l-.053-.84-.42-.21q-.105-.105-.236-.341t-.184-.342q0-.262.84-.892.158-.158.473-.447t.315-.446q.053.052.21.315t.315.263q1.313 0 3.414-.368l1.68-.21.473-.263q.683 0 1.313.158 1.575.157 1.733.157l.21-.052q4.359 0 7.93 1.418.472.21 1.313.735.997.683 1.785.945l2.258 2.258zm-16.254-5.33q-.393.393-.393.708l.052.21.158-.42 2.678-1.26.315-.053q.525 0 .525.263 0 .315-.367.683t-.473.577l.42-.21q-.105.368-.578.762t-.472.656q.577-.42 1.995-1.05.368-.21 1.234-.604t1.55-.814q-.368-.368-1.55-.657t-2.336-.288q-2.101 0-2.311.945-.053.157-.447.551zm-7.22 5.776q-.053.709-.053 1.234.158 0 .289-.21t.131-.525q.315-.263 1.366-.683 1.733-.63 1.995-1.208h-.42q0-.315 1.418-.787-.63-.21-.63-.578 0-.158.052-.263l-1.47.63v-.21q0-.105 1.208-.814t2.1-1.024l-.21-.21.42-.84q-.052.053-.367.053-.42 0-.42-.263-.158.473-.604.761t-1.13.552q-.104.052-.656.289t-.761.656l-.158-.157q-.683.682-1.05.787v-.21l1.05-.997q.21-.053 2.1-1.26t2.259-1.681l-1.68-.053q-1.366 0-1.471.473l.42.21q-.157.157-.394.341t-.446.289q-.42 0-.552.105t-.236.446-.63.342q0-.525.368-1.733-1.05 0-1.05.472l.052.683q0 .315-.21.525h.262q0 .053.08.21t.078.368q0 .105-.184.236t-.236.237q0 .157.079.34t.078.29q0 .262-.21.709t-.21.709q.368 0 1.077-.29t.814-.55q.052 0 .052.21 0 .42-.945.813t-.998.447h1.05v.42h-1.207q-.158 0-.21.709zm2.1-6.328.42.42q.105-.105.21-.42t.21-.473q-.735.158-.84.473zm12.604.21q-1.05 1.05-2.1 1.89-.63.42-1.419 1.208l4.202-2.048q.367 0 .472.289t.105.499q0 .105-2.258 1.89v.21q.368-.157 1.313-.787.158-.105.945-.578t1.418-.472q.105 0 .184.052t.079.105q.157-.21.42-.473t.578-.315q-2.049-1.47-3.94-1.47zm-6.696 1.181q-1.129.552-1.76 1.025t-.682.892q.42 0 1.05.132t.84.288q0-.63 1.051-1.785.84-.84.998-1.313-.368.21-1.497.761zm1.97 2.127q.525-.262 1.102-.892.84-.84 1.366-1.156l-4.149 2.048v.263q1.155 0 1.68-.263zm3.623.027q.735-.552 1.523-1.497h-.21l-2.31 1.103q-.158 0-.395.367t-.236.578q.893 0 1.628-.551zm8.035 0q-.788-1.287-1.786-1.287-.367 0-2.442 1.497t-2.284 1.864q.42-.21 1.103-.499t1.208-.604.998-.788q.735-.42 1.943-.42.315 0 .367.21-.157.21-1.076.84t-1.34.946q-2.468 1.628-2.468 1.838.21 0 1.366-.446t1.418-.657v.368q-.368.21-1.103.525-.683.315-1.05.551t-.368.552.472.315q.998-.945 2.049-1.576t1.26-.735.368-.604.472-.499v.315q.105 0 .342-.13t.393-.132l.105.21q-1.628 1.155-2.94 1.89l.21.158q-.21.315-.814.656t-.814.604l.157.21q.105-.262.867-.577t1.444-.473v.42q-2.73.998-2.73 1.366 0 .735.524.735.21 0 .342-.053t.236-.21.368-.367 1.102-.736q1.366-.787 2.127-1.47t.762-1.523q0-.998-.788-2.284zm-6.932 1.864q.315-.578.788-.92t1.313-.866q.945-.472 1.417-.892-.42.052-1.391.367t-1.865.735-.892.736q0 .42.63.84zm-4.674 10.477q2.153-.342 2.836-.5.472-.21 1.05-.314 1.103-.315 1.602-.683t.499-1.365q0-1.89-.315-3.178t-1.47-2.074q0-.105.104-.341t.158-.447q0-.577-1.024-1.181t-2.31-1.024-1.813-.42q-.682 0-1.785.157t-1.103.263v2.678q.263.158.42.919t.158 1.182q0 1.102-.105 3.098l-.105 1.786q0 1.155.052 1.312-.315.053-.315.473 1.313 0 3.466-.341zm5.83-9.427q.104 0 1.312-.84t1.68-1.26h-.21q-.367 0-1.68.814t-1.418 1.076q.21.21.315.21zm-15.913 3.624q0 .788.263 1.733.735-.473 1.523-1.05.682-.473 1.444-.946t1.549-.735v-.263h-.683q0-.787 1.576-.787 0-.368-.105-.788t-.263-.42q-.368 0-2.573 1.523-1.313.945-1.523.945-.473 0-.525-.42.262-.42.892-.578.106-.052.5-.236t.656-.604l.21.21.21-.578h-.84v-.262q.84 0 1.26-.42.053-.053.315-.21t.893-.158q.105 0 .184.079t.079.131q.42-.262.42-.63t-.263-.683l-2.888 1.47q-.473 0-1.156.552t-.892.92q-.263.577-.263 2.205zm2.94-4.884q-.42.262-1.102.262 0-.525.578-.525.472 0 .525.263zm17.987 1.864q.027-.184.132-.315t.577-.131v.472q0 .21-.603.447t-.972.236q0-.63.315-.683.053.158.21.158.315 0 .341-.184zm-19.562.5q0-.736.526-.736 0 .735-.526.735zm21.558 4.804q.341-1.707.341-1.759 0-1.365-.63-3.361-.472.42-2.363 1.575-.998.63-1.89 1.235t-1.103.971q.157 0 .604-.21t.656-.21.368.158q.052-.316 1.234-.762t1.654-.446q.21 0 .446.078t.394.08q-.42.577-1.024.97t-1.812 1.025q-2.048.998-2.783 1.943.21-.053 1.26-.552t2.311-.866l.21-.21q0 .052.053.131t.105.079q.21 0 .656-.131t.604-.132l.42.053q-.052.42-.893.866t-2.52 1.13q-1.996.735-1.996.997.315 0 1.366-.21.945-.262 1.575-.262v.21q.368 0 .945-.342t.893-.341q.578 0 .92-1.707zm-22.45.683q-.315.184-.552.42t-.236.657q.63-.263 1.943-.893t1.943-.998q.21-.21.315-.551t.237-.473.656-.131q.578 0 .683.367 0 .105-.08.289t-.183.289l-.21-.053q-.473 0-1.418.736-1.05.84-1.68.84v.42q.63 0 1.575-.42.945-.473 1.68-.473.316 0 .316.158 0 .682-.526 1.155t-1.575.998q-1.155.578-1.47.998.21.21.262.21.368 0 1.287-.473t1.654-1.076.735-1.13v-4.936q-.367 0-2.993 1.707t-2.626 1.97h.578q0 .21-.315.393zm19.483-1.917q1.26-.578 1.26-.788l-3.78 1.26v1.051q.63-.735 2.52-1.523zm-16.647.42.105.158q0 .262-.29.446t-.55.184v-.315zm-2.679 5.304q.42-.63.972-.997t1.496-.893q.42-.21.762-.42t.341-.473v-.315q-.525 0-2.258.578-.998.315-1.26.367l-.42-.21q-.105.788-.158 1.602t-.052 1.129l.21.63q.105-.157.315-.42t.21-.42-.158-.158zm20.954-1.26q0-.105.21-.63-.315 0-2.468 1.05t-2.889 1.418l-.42.42h.578l.052.158q-.735.735-1.733 1.208t-1.575.472l-.42-.367q0-.316.42-.604t.578-.29l.21.21q0-.157.078-.367t.132-.262l.21.105v.315q.262-.63.893-1.234t1.207-.604l-.42.577q.105-.052 1.05-.735.526-.63 1.209-.893-.893 0-2.154.604t-2.205 1.287q-.053 0-1.366.893-1.733 1.313-2.1 1.418l-.053-.053-.052-.105q0-.315.577-.761t1.26-.893.893-.552q1.996-1.207 2.311-1.628-.578 0-1.838.316-1.365.315-1.47.315l-.63.42v-.315l-.893 1.155q-1.628 2.153-1.786 2.258.053.105.158.158t.21.052q.052-.052.446-.289t.394-.34q.053.052.053.314 0 .368-.368.578t-.473.367q.263 0 .657.21t.656.21l1.156-.262 1.89-.368q.42-.052 1.182-.078t1.365-.158.972-.604q-.053-.105-.053-.262 0-.21.368-.368t.472-.42l2.101-1.05.21-.42q-.473.157-1.602.63t-1.916.472q.105-.21.183-.499t.237-.42.525-.131q0 .262.21.262.525 0 1.943-.577t1.838-.945q-.21-.105-.21-.368zm-20.14 2.232q-1.076.394-1.391.814-.105.262-.158.656t-.053.71v1.522q.21-.052 1.576-1.103 1.365-1.155 1.68-1.155.105-.525.473-.814t.709-.499.446-.262q.368-.158.71-.394t.393-.5q-.157 0-.394.106t-.393.105l-.42-.053v-.367q.157-.053.63-.237t.577-.393q0-.053-.079-.132t-.13-.079q-.263 0-.684.342t-.735.341v.315q-.105 0-.236-.078t-.236-.08q-.368 0-.788.42l.21.158q-.105.105-.289.184t-.289.079q-.052 0-1.129.394zm2.18 2.862q2.1-1.313 2.625-2.048.473-.63 2.416-1.103 1.103-.263 1.103-.473 0-.315-.84-.315-.368 0-.604.08t-.604.34q-.105-.157-.368-.262t-.42-.105q-.578.472-1.628 1.05-.945.578-1.103.788l-.21-.21-.63 1.26h-.21q-.158.21-1.208 1.103-.788.63-1.26 1.155l.157.053q.683 0 2.784-1.313zm14.809-.92q.473-.078.84-.42t1.103-1.338q-1.943.84-2.678 1.89.262-.052.735-.131zm-12.026 1.104q.63-.132 1.733-.132 0-.42.368-1.26t.63-1.05q-.683 0-1.234.341t-1.34 1.024q-.157.105-.708.525t-1.077.63l.42.42q.578-.367 1.208-.498zm-5.672-.552q-.105 0-.315-.21.473-.42.998-.42 0 .63-.683.63zm1.103 3.493q1.68-1.13 2.153-1.602h-.21l-2.678 1.208q-.525.525-.84.63v-.42l-.42.21v1.103q.315 0 1.995-1.13zm3.519-.972q.105-.105.105-.262l-.263-.21q-.368 0-1.785.918t-1.418 1.13q0 .052.078.052h.08l3.045-1.47zm1.155 1.418zm-1.26.21h-.21q-.263 0-1.812 1.024t-1.76 1.234h.84l2.732-1.26q.21-.105.21-.998zm-3.782.762q-1.26.603-1.417.656v1.103q.105 0 1.759-1.13t1.654-1.233q-.735 0-1.996.604zm-1.628 4.227q.736 0 2.889-1.733.945-.735 1.313-.945l-.053-.21q-.893.157-2.416.709t-1.522.866l.052.63q0 .42-.263.683zm5.12-2.022q.08-.499.08-.709-.106 0-4.202 2.941l.263.158q.315-.42.788-.604t1.312-.342q1.156-.21 1.576-.472.105-.473.184-.972zm-.13 2.022q-.893 0-1.655.263t-.919.315q-1.47.525-2.205.525v.525q.63 0 .814.053t.315.236.551.341l.158-.472q1.47-.368 1.838-.368.42 0 .63.21.472-.525.472-1.628zm46.318 1.155q0 1.156-1.26 1.523t-3.204.368q-1.102 0-3.098-.105-1.786-.105-2.836-.105-.63 0-1.733.079t-1.733.13q-.473 0-1.523-.21-.21-.052-.814-.157t-1.129-.105q-.998 0-2.206.263-1.47.21-2.048.21-.998 0-.998-2.468l-.052-.736q0-.577.21-.945v-6.04q.053-.21.131-.603l.132-.656-.263-1.628q0-.946.105-3.151.158-1.733.158-3.414v-.21q0-.42-.263-.683 0-1.313-.21-3.833-.053-.578-.105-1.733t-.053-1.996q0-.473.08-.919t.078-.656q.21-.946.21-1.68 0-.21-.079-.5t-.079-.394q0-.42.368-.814t.473-.551l.577.053q.578 0 1.523-.106.788-.157 1.733-.157.053 0 .132.105t.131.105q.578-.84 8.402-.84 2.101 0 3.808.052t3.755.21q.367.158.472 1.13t.105 2.651q0 1.418.237 1.838t.236.578-.131.447-.29.393q-3.518 0-8.297-.63-.892.683-2.993.683l-1.365-.053q-.788 0-.998.158v6.46h10.345q.105 0 .263.104t.21.21q0 .105-.263.552t-.262.656q0 .105.341.762t.342 1.181v.578q0 2.258-.63 2.573-1.208.158-2.101.21t-1.89.053q-1.944 0-3.73-.158-2.415-.105-3.675-.105l.42.84q-.053.473-.237 2.022t-.183 2.652q0 .42.13.71t.185.603q0 .683.236.893t.866.21q3.099 0 6.932-.262 4.622-.21 6.933-.21.315 0 .315.367 0 .158-.053.263v3.36zm-2.652-31.483q-.184-.236-.709-.236-1.89 0-3.308.263t-2.836.997q0 .053-.499.736t-1.234 1.102q-.053-.052-.184-.105t-.236-.052q-.053 0-.184.236t-.184.342h.368l-.998 1.26q.683-.158 1.418-.578t1.05-.84l.263.158q.63-.63 1.523-1.05t1.313-.42l.21.052-.998.997q-.21.158-.683.578t-.945.893l.42.42q.21 0 1.13.105t1.39.105q.316 0 1.051-.63.788-.578.945-.63.158.105.184.236t.026.184q.42-.158 1.156-.735t.945-.578v-.368l-.84.42q.262-.42.446-1.05t.184-1.103-.184-.709zm-18.774 7.799q.105.105.21.105.052-.21.262-.525t.263-.315q.42 0 .42.052t-.105.131-.157.237q.262 0 .551-.132t.499-.13l-.42.42q-.105.157-.683.524t-.578.526v1.89q.21-.157.5-.446t.288-.5q-.21 0-.394-.13t-.184-.342q0-.157.972-.682t1.182-.526l-.053.316q0 .157.21.21-.157.105-.551.288t-.683.394-.289.473l.053.315.42-.42.052.21q0 .263-.394.473t-.498.367q.315 0 .997-.315t1.05-.315v.21q-.262.158-1.155.578t-1.207.893-.316 1.207q.105-.052.263-.236t.158-.394q1.365-.893 1.838-1.234t.525-.341q.315 0 .315-.63v-.263q.052 0 .131.105t.079.158q.157-.106.525-.473t.525-.683l.63.473q-.367.472-1.628 1.208-.892.525-1.418.919t-.682.971q.052-.105.184-.157t.236-.053q.052 0 .131.053t.079.157q-.21.158-.762.578t-.919.63v.893q.158-.053.42-.368t.368-.315q.053 0 .71-.472t2.441-1.786q-.367.105-.788.236t-.682.184q.105-.578 1.313-.788.577-.105.866-.236t.341-.394q.263-.893.263-2.993-.105-.053-.315-.053-.315 0-.945.237t-.788.236q-.263 0-.263-.263.21-.315.972-.656t1.181-.341v-.946q-.472.42-1.207.42-.368 0-.736-.21.683-.42 1.103-.63t.762-.446.341-.394l-.157-.21.735-.762q.683-.709 1.313-.709-.368.368-.788.998.105-.052.814-.236t.709-.289q0 .053-.552.42t-1.391.998q.367.21 1.208.21l1.26-1.26v-.21l-.21-.21q0-.368.263-.526t.84-.367.577-.473q0-.105 1.024-.84t1.235-.893l.21-.21h-2.048q-.263 0-1.208 1.05-1.68 1.523-1.628 1.47-.105-.052-.21-.262t-.105-.367l-.578.84q0-.683.21-.867t.788-.183v.367q.262-.157.472-.42t.263-.368h-.735q.63-.735 1.26-1.05-.157-.21-.578-.21h-.262q-.84.105-2.153.236t-2.363.184q-.21.683-2.259 2.52-1.313 1.209-1.313 1.419.368-.21.84-.21-.104.21-.787.525t-.683.525v2.468zm-.158-6.512q0 .368.132.578t.498.21q.106 0 1.392-.683t1.34-.788q-1.261 0-1.681-.42-.21 0-.657.21t-.604.21l-.42-.21v.893zm6.906-.446q-.236.236-.499.393 0-.892.735-.892 0 .262-.236.499zm8.823.367q-.71.236-1.077.289 0-.473.63-.709t1.156-.236v.262q0 .158-.71.394zm-9.9.657v-.21q0-.316.158-.42l.053.21q0 .315-.21.42zm-5.829 2.258q.788-.42 1.628-1.13t.893-1.338q-.42.105-1.024.393t-.761.394q-.526 0-.657.184t-.131.867zm3.781-.63.998-1.05-.21-.158q.315-.473.84-.63-.472 1.207-1.628 2.258v-.42zm1.208.525q-.472.367-1.601 1.26t-1.497 1.366l-.053-.263q0-.525.368-.525 0-.053.052-.184t.053-.394-.21-.315q.368-.105.761-.525t.5-.525v.367q.524 0 .945-.21t1.155-.735q.683-.578 1.418-.893 0 .158-1.89 1.576zm-.787-1.313q-.053.052-1.05.656t-1.261.604v-.262q.315-.158.945-.578.105-.053.525-.315t.84-.368v.263zm11.737.052q.236-.105.551-.105l.368.053q-.21.052-.578.236t-.578.184q0-.263.237-.368zm-5.12 2.048q.472-.157.945-.525t.735-.577l-.42-.21q.42-.105.656-.263t.342-.525l-1.05.683q-.84.525-1.734 1.05t-1.365.525q1.418 0 1.89-.158zm-2.206-1.47zm10.766.315q-.578 0-1.655.447t-1.286.866l.42.21h2.205q.316 0 .316-1.103v-.42zm-15.493 9.69q.788-.5 1.103-.5 0 .158-.21.368l.473-.236.315-.5.052-1.05q-.157.053-1.68 1.05t-1.628 1.156q-.21.368-1.155 1.313l-.736.84q0 .263.08.473t.078.315q.158-.105 1.34-1.05t1.18-1.156q0-.525.788-1.024zm-1.575-.92zm2.258 3.309h-.367l.367-.21q-.052-.21-.262-.21l-.316.052q0-.262.63-.788t.998-.525v.263q.368 0 .368-.263v.21q0 .263-.157.42.262 0 .42-.183t.157-.342q0-.315-.289-.63t-.499-.315-1.234.866-1.286 1.287l.262.158q.158.052.158.105 0 .21-.867.551t-1.076.446q-1.156.368-1.156.526 0 .21.132.341t.236.131q.473 0 1.155-.682.315-.263.683-.5t.683-.236q0 .473-.525.946t-1.103.892-.84.578h-.42v1.576q.472 0 1.207-.71t.893-.866q.788-.473 1.943-1.155t1.943-1.103q.263-.315 1.208-.893.945-.525 1.313-.945-.21 0-.446.052t-.342.105q.315-.472 1.208-.787h-1.628zm0-2.521q-.105.052-.42.184t-.499.367-.184.5q.473 0 .814-.237t.342-.656zm5.436 1.26q-.657.63-.657.683.42 0 1.68-.473 0 .105-1.339.84t-1.601.736q0-.263.394-.552t.446-.34h-.63q-.158.104-.893.603t-.735.604l.079.026.183.026q.315 0 .788-.262-.263.368-.919.709t-1.864.814q-1.418.525-2.127.919t-.71.919q.211-.158.894-.63t1.208-.473l.157.315q0 .473-.761.972t-1.497.814q0-.263.262-.394t.368-.447q-.262 0-.63.21-.42 0-.42-.21-.263.21-.657.604t-.604.657q.42 0 .683-.105t.578-.315q-.158.42-.604.682t-.657.526h.63q-.262.262-.34.656t-.08 1.024q.998-.315 1.681-1.26 0 .052-.105.551t-.105.71q-1.68.84-1.68.997v.262q0 .368.078.92l.131.918q.42 0 1.523-.735.578-.315 1.182-.63t1.024-.315l.21.052q.105-.525.263-1.601t.157-1.97q-.052-.157-.236-.367t-.341-.21q-.315 0-2.994 1.208l-.157.052q.052-.315.814-.788t1.024-.472q.105 0 .184.052t.078.158q0-.315.237-.447t.814-.236.577-.367v-1.47l.42-.211q1.523 0 4.57.105 2.31.158 4.568.158 1.208 0 1.89-.42l-.262-.263q.473 0 .604-.473t.131-1.26q-.997 0-1.917.394t-1.733.893-1.181.708h-.42q-.578 0-.63-.262.577-.788 1.549-1.523t1.707-.735v-.42q-.473 0-1.182.34t-1.444.762q-2.31 1.366-3.466 1.366 0-.525.236-.552t.289-.446q1.523-.735 2.1-1.365t1.103-1.838h-.892q-.368.262-1.024.892zm3.413-.499q-.131.342-.341.342l-1.418.998q-1.418 1.05-2.521 1.68.63 0 1.89-.788.736-.472 1.05-.472l2.89-1.208q.21 0 .603-.105t.604-.105v.367q0 .263-.473.552t-1.05.604q-1.05.472-1.55.814t-.498.814q.473 0 .735-.184t.473-.394l.315-.315q.368-.368 1.208-.473.788-.157 1.155-.499t.368-1.444q0-.525-.263-.525h-2.888q-.158 0-.289.341zm-5.278.71zm-4.332 7.535q-.657.394-1.077.394.053-.472.657-.866t1.076-.394q0 .473-.656.866zm-2.705 2.968q.315-.316.893-.683.945-.683 1.103-.998h-.578l.42-.525h1.418q-.157.525-.578.866t-1.207.867q-.473.21-.893.578-.053.21-.315.525t-.525.472q-.053-.052-.053-.42t.315-.682zm2.994 4.568q.63-.42.892-.735l-.315-.052q-.525 0-1.103.577-.63.525-1.05.525.21-.367.578-.577t.787-.368q.105-.052.604-.289t.71-.656l-.42-.42-2.994 2.048v.84q-.158-.052-.315-.184t-.42-.236l1.05-.998 2.1-1.68-1.26.63-.21-.053v-.367q.578-.053.998-.5t.84-.55v-1.26q-.157.42-.578.787t-.892.472v-.21q0-.262.262-.367l-.262-.053q-.42 0-1.55.604t-1.129 1.077q0 .157.08.341t.13.289q.158-.368.473-.656t.683-.5q.577-.262.945-.682 0 .315-.262.578t-.762.656-.656.604h.63v.21q-.158.105-.657.473t-.709.735-.21.84h1.05q0 .053.053.158t.053.21q0 .052-.21.236t-.42.236q-.106-.262-.42-.262 0 .84.42 1.103.472-.158.997-.342t1.103-.289q.21-.105.263-.525t.105-.525q.262-.367.998-.893zm14.231.237q.84-.5 1.523-1.182t.683-1.26l-3.309.42q-.105.052-.814.656t-1.024.604q-1.102 1.05-1.47 1.444t-.368.447q.158 0 .71-.42t.813-.578q1.208-.945 1.996-1.444t1.313-.5q.105 0 .236.106t.289.105q0 .315-.525.972t-1.156 1.129q.263 0 1.103-.5zm-5.041-2.022q-.368.367-1.523 1.208-1.366.945-1.838 1.47.63-.052 1.286-.446t1.497-1.024q.21-.105.84-.525t.998-.473v-.21h-1.26zm-3.519.735q-.683.315-.998.551t-.315.604q.525 0 1.34-.604t1.076-1.076q-.368.21-1.103.525zm3.177 2.705q.027-.604.132-.762l1.628-1.628-.263-.052q-.578 0-1.182.367t-1.549 1.103q-.262.158-.814.551t-.971.578-.735.184q-.736 0-.736-.315 0-.473 1.103-1.208t1.208-.788v-.262q-.893 0-3.886 2.31h-.578q0-.997 1.996-2.258v-.21q-.788.473-1.68.84-1.314.526-2.049 1.05v-.735q.735 0 2.73-1.365-.314-.262-.63-.262-.577 0-1.26.498t-1.181 1.024-.71.683h.579l.105.315-.42.42q2.678.683 6.301.683l2.574-.052q.262-.105.288-.71zm5.83.735q1.549-.342 1.549-1.602 0-.42-.079-.656t-.341-.237l-3.939 2.259h-.263q-.577 0-.577-.316.63-.105 1.234-.761t.814-1.444q-.578.105-4.096 2.73.367.21.63.29t.945.078h.525q2.048 0 3.598-.341zm33.478-.998q.683.762.683 1.287-.053.105-.236.315t-.237.21h-6.197q-.367-.315-1.234-1.182t-1.654-1.707q-1.05-1.102-1.838-2.284t-1.943-3.125q-.158-.21-.289-.735t-.289-.735q-1.523-2.048-4.936-2.048-.105 0-.184.079t-.079.13q.473 4.517.92 7.642t.603 3.86q0 .945-.472.945-.736 0-1.523-.157-.263-.053-.657-.106t-.919-.052q-1.05 0-2.153.158-.368.052-1.024.105t-1.182.052q-.367 0-.42-.21l-.131-1.34q-.079-.814-.079-1.338-.052-2.574-.21-5.803t-.21-4.49q-.42-8.928-.42-13.287 0-.525.21-1.365.21-.945.21-1.628 0-.368-.079-.814t-.078-.71q0-.314.157-.524v-1.89q-.42-.106-.578-.42.368-.526 1.313-.736t2.469-.315q.21 0 .945-.105t.84-.263q.158-.21.893-.315t1.523-.105q1.103 0 2.573.368.42.052.945.157t1.156.158q3.256.21 5.356.709t3.729 2.127q.315.367 1.234 2.336t1.024 2.442q.315 1.26.499 2.39t.184 1.182q0 2.153-.998 4.07t-2.783 3.334q-.053.053-1.26.893-1.261.84-1.261.893 2.416 3.098 4.779 7.09l.735 1.26q.105.157.578 1.024t1.208 1.707q.105.105.787.866zm-19.51-30.853q-.97.84-1.023.945.63 0 1.05-.42.053.053.053.263 0 .262-1.182 1.024t-1.497.761q-.157.526-1.103 1.576t-1.05 1.155h.473l1.365-.84q.945-.63 1.576-.893t1.838-.262q.052 0 .551-.027t5.225-.026q.42 0 .762-.289t.761-.814q.315-.42.683-.735t.735-.315q0-.105-.079-.21t-.183-.105q-1.05.42-2.101 1.05-1.786.998-2.468.998-.315 0-.42-.263.472-.472 1.024-.814t.709-.446q1.47-.945 2.048-1.628-.263 0-.578.131t-.525.132l-.158-.053-2.52 1.26q-.42.21-1.628.788t-1.523.578q0-.578.262-.762t.788-.288.683-.316q.105-.157.446-.446t.578-.604.236-.63l-1.313.473-1.155.367v-.42q.315-.105.761-.367t.657-.473l-.21.052q-.21 0-.578-.13t-.63-.132q-.368.315-1.34 1.155zm-2.021-.683q0 .053.079.105t.13.053q.894 0 .999-.42zm7.326.158q-.394.053-.683.21t-.289.473l.053.157q.42-.157.971-.42t.552-.315l-.053-.052-.052-.106q-.105 0-.5.053zm-10.635.788q0 .052.08.236t.13.289q.368 0 .63-.236t.578-.657.473-.42q-1.89 0-1.89.788zm3.02-.657q-.131-.131-.236-.131-.42 0-1.208.709t-.998 1.182q.368 0 1.576-.893.84-.63.997-.63 0-.105-.13-.237zm-2.494 2.6q-.578.84-.578 2.468h.262q.84-1.838 4.57-4.779v-.21q-.42 0-1.077.604t-.762.656q-.105 0-.157-.052t-.053-.105q-1.628.578-2.205 1.418zm12.918-2.022q-.367.499-.472.604l.105.157q.157-.105.814-.42t.656-.577q-.262 0-.63-.263-.105 0-.473.499zm3.755.446q-.394-.105-.709-.105-.525 0-2.205 1.234t-1.68 1.55q.577 0 2.362-.998 1.89-1.05 2.626-1.156v-.21q0-.21-.394-.315zm-1.26 3.046q.551-.472 1.076-.998.84-.84 1.208-1.102-.525 0-2.783.945t-2.258 1.313q0 .525.893.63.21 0 .551-.263t.499-.367v.315q.262 0 .814-.473zm3.335-1.444q-.263-.184-.42-.236-.42 0-2.784 1.838-.262.21-.551.394t-.604.446v.263q.525 0 1.155-.237t1.156-.551q1.365-.788 2.205-.788 0-.157.131-.42t.132-.368q-.158-.157-.42-.34zm-.578 2.6q.578-.578 1.208-.998-.053-.053-.263-.053-.525 0-1.286.342t-1.392.709-.788.472q0 .42.63.84.84-.367 1.89-1.312zm-18.853 4.647q.052.552.157.814.736-.735 1.366-1.234t1.103-.656q.21-.63 1.05-1.103.63-.42.84-.735.105-.21.184-.84t.394-.63q.525 0 .683.63-.053.262-.053 1.68 0 .472.315 2.783.315 2.52.315 3.361.158 0 1.182.552t1.917.551l1.995.053q1.996 0 3.545-.736t1.55-2.258q0-1.365-.552-3.57t-1.287-2.207q-.682 0-.919-.13t-.394-.447-.577-.473q-.21-.052-.814-.157t-.814-.473q-.053.052-.132.236t-.236.184q-.315 0-.315-.42-3.046 0-4.438.262t-3.177 1.418l-.262-.21q.157-.157.472-.394t.315-.288l-.078-.053-.08-.105-3.098 1.47q-.262.106-.34.63t-.08.63q.683 0 1.05-.288t.762-.84.657-.762l.262.42-1.47 1.628q.262-.052.604-.42t.604-.42v.263q.682-.998 2.1-.998l-.052.263-1.05.525q-1.524.682-2.39 1.181t-.867.762zm18.984-4.227q-.971.735-.971 1.103.472-.316 1.575-.526t1.523-.525q-.157-.157-.394-.446t-.341-.394q-.42.052-1.392.788zm.053 2.31q1.286-.945 1.864-1.628-.315.053-1.313.342t-1.575.499q-.578.157-.736.551t-.157 1.182q.63 0 1.917-.946zm.84-.026q-.919.499-1.707.867l-.157.42q.315 0 .997-.158t1.05-.472v.21q.053 0 .841-.237t.788-.394-.158-.498-.367-.5q-.368.263-1.287.762zm-17.619 4.175q0 .053-.499.552t-.761.708q.577-.052 1.313-.682.105-.053.551-.368t1.024-.315q.105 0 .394-.157t.394-.316q0-.472-.105-1.523t-.105-1.627l.052-.63q-.683.472-2.442 1.785t-1.759 1.47q0 .053.079.158t.184.105l.42-.368 2.835-1.47h.21q0 .577-1.837 1.497l-2.049 1.024v1.628q.21-.21.972-.71t1.077-.918zm15.282-1.575q0 .787.315.787.735 0 2.206-1.365.105-.105.656-.551t.972-.604v-.21q-.578.262-1.55.525t-1.339.367v.368l-1.207.42zm2.363.21-1.89 1.208v.21q.21 0 1.26-.42 1.313-.473 1.418-.473t.341.079.447.078q0 .526-.683.972t-1.287.683-.709.288v.21q1.576-.63 2.364-.63.367 0 .525-.892t.157-1.943l-.052-.736q-.315.368-1.89 1.366zm-16.043.341q-.447.499-1.234 1.024v-.578l1.68-1.68q0 .735-.446 1.234zm13.733 2.127q.157 0 1.234-.446t1.444-.657l-.21-.157-2.468.997v.263zm-14.232-.42q-1.576.788-2.39 1.339t-.814 1.34q.473-.368 1.445-1.051t1.286-.683v-.368q.21-.157.788-.498t.84-.342q-.157.315-1.68 1.55t-2.1 1.549v.262q.787-.472 2.178-1.076t1.76-.814h.315q0-1.156-.315-1.89-.158.104-1.313.682zm12.919 4.989q1.943-.735 3.282-1.917t1.339-2.337q-.788.525-1.812 1.05t-1.444.788q-1.208.683-2.52 1.444t-2.521 1.707q1.733 0 3.676-.735zm-15.702 2.626q.367-.473 1.916-1.733t2.022-1.366q.525 0 .998-.683.263-.42.551-.63t.762-.21l.052-.21-.472.053-4.99 2.73-.42-.262q.316-.473 1.786-1.366 1.208-.735 1.838-1.286t.63-1.077q-.262 0-.787.342t-.683.341q-.368 0-1.838.945-1.418.84-1.576.893l-.105 1.365q0 1.523.316 2.154zm9.925-.42q-.315 0-.814.104t-.761.106q0-.683.866-1.208t2.284-1.156q.21-.105.736-.341t.577-.394q-.21-.052-.21-.42t.21-.368q.525 0 .525.473.42 0 1.182-.499t.92-.604q.577-.472 1.575-1.05-.63 0-1.287.341t-1.024.5q-.945.367-2.73.708t-2.942.341q-.42 0-.577-.052-1.05.683-2.311 1.208-.105.052-1.05.682-.63.526-1.418.788v-.42q.892-.368 2.337-1.208t1.654-1.208q-.105-.157-.368-.288t-.42-.132q-.21 0-1.313.657t-1.995 1.549-.893 1.733q1.418-.263 2.888-.735t1.89-.736l2.89-1.26q.052-.105.76-.315t1.13-.315l.052.21q0 .368-1.313.945t-3.938 1.523q-2.101.735-2.941 1.103-.105.053-.447.394t-.551.604q.578 0 1.155-.342t.946-.498q1.365.105 2.678.183t1.838.08zm-5.83-3.94-1.207.631v.21l1.208-.578v-.262zm6.67 2.89.315.052q.315 0 .42-.08t.105-.393zm1.55.76q1.023-.708 1.339-.918-.526 0-1.944.525t-1.417.63.288.289.394.184q.315 0 1.34-.71zm2.809-.288-.21-.473q-1.47.525-1.838 1.05zm-13.208.788q.394-.473.394-.998-.21 0-.499.315t-.341.315l-.42.84q.472 0 .866-.472zm-1.076 1.785q.525-.368 1.418-.788 1.365-.735 1.68-1.208l-2.73 1.05q-.21.316-.526.447t-.42.341-.105 1.05q.158-.524.683-.892zm13.496-1.234q-.577.341-.84.709l.263.052q.21 0 .997-.315t.788-.42-.079-.236-.13-.131q-.421 0-.999.34zm-1.733.105q-.42.236-.577.394v.42h.367l1.103-.998-.263-.052q-.21 0-.63.236zm-7.825 1.024-.262.42-1.26.893q-1.208.84-1.812 1.339t-.604.867l3.676-1.208q.893 0 .893-.473 0-.683-.473-2.678l-4.516 2.678v.63h.21q.525 0 1.024-.367t1.181-1.05q.578-.578.92-.84t.708-.264zm7.51 1.392q.21.446.525.656.158-.105.92-.709t1.18-.761q0 .315-.13.472t-.447.368-.472.42q.63 0 1.575-.315 1.05-.315 1.576-.315l.42.052.157.578-1.418 1.47v.21q.578-.104 1.366-.446t1.155-.709q0-.21-.919-1.129l-1.234-1.234q-.21 0-.604.368t-.604.472q0-.105-.052-.184l-.053-.078q0-.053.473-.473t.525-.63l-.263-.053q-.472 0-.998.263t-.682.315q-.105.053-.578.315t-.893.315q0-.367-.157-.367t-.63.577q.052.105.262.552zm3.309 3.965q.525-.578.787-.578.053 0 .184.052t.184.105q-.105.316-.578.42 0 .053.08.158t.13.105q.315 0 1.707-.604t1.392-.761q-.053-.158-.184-.42t-.236-.526l-1.628 1.208h-.683q0-.315.761-.656t.92-.552l-.316-.052q-.63 0-1.68.525-.945.578-1.786.578-.315 0-.367-.21l1.05-1.05q.735-.053 1.838-1.471-.945 0-2.1.578-.21.052-.762.262t-1.077.21v-.367l-.42.157q.21.368.788 1.287t1.103 1.864v.315q.367 0 .893-.577zm-9.584 4.41q-.237-.577-.394-.577-.368 0-1.208.473-.683.473-1.103.473h-2.1q.735-.578 2.205-1.523t2.153-1.366q-.577 0-1.076.184t-1.182.551-1.155.552-1.05.184q-.106 0-.184-.08t-.08-.13q.42-.526 2.206-1.576 1.26-.788 1.891-1.234t.63-.814l-.21-2.153q-.21 0-.21.262t-.709.84-.866.683q-1.26.946-1.523 1.26l1.05-.42v.42q.42-.367.919-.524t1.34-.316q0 .106-2.364 1.156t-2.573 1.05v3.834q.525 0 2.337-.027t3.492-.393q0-.21-.236-.788zm-5.593-3.36q.892-.578 2.205-1.654t1.89-1.865q-.682 0-1.47.315t-.997.368q-.84.42-1.628.578-.158.367-.21.682t-.053.683q0 .683.263.893zm16.174 1.26q.21-.735 1.34-1.601t1.969-1.13q0-.052-.079-.105t-.131-.052q0 .052-2.363.945-1.628.525-1.786.683.105.525 1.05 1.26zm1.208 1.05q.368 0 .578-.367t.394-.84.289-.683q.105-.105.787-.394t.683-.446-.184-.394-.341-.236q-.473 0-1.287.761t-1.286 1.34q.315-.053.656-.29t.552-.341q.052.053.052.131v.08q0 .367-.63.682t-1.05.367q.367.63.787.63zm-12.498-2.73q-.315 0-.84.472t-.736.788q.368-.105.867-.289t1.076-.183q0-.788-.367-.788zm13.549 2.31v.21l1.05-.367q1.47-.525 1.47-.683l-.42-.84q-.735.893-2.1 1.68zm-13.287-.42-2.678 1.68q.998 0 1.995-.393t.998-1.287h-.315zm13.497 2.048q.682-.315 1.47-.892t.998-1.156l-3.309 1.418q.316.473.84.63zm3.124.394q1.077-.183 1.077-.499-.053-.157-.236-.34t-.237-.185q-.315 0-1.391.342t-1.287.499l.42.367q.578 0 1.654-.184zm31.43-7.378q-.104.578-.104 1.05 0 .158.157.342t.158.236q0 .367-.42.814t-.473.551q-.367.525-.735 1.208-.42.84-.788 1.313-.84 1.05-2.547 1.838t-3.124.788q-.368 0-1.26.105t-1.524.42l-.577.052q-.316 0-.63-.21t-.893-.21q-.21 0-.552.105t-.499.158q-.63.368-1.313.368l-2.31-.578q-.263 0-.63.079t-.526.078q-.84.21-1.575.21-1.418 0-2.048-.21t-.735-.262q-.315-.21-.998-.368-.84-.157-.84-.21l-.158-.21q-.105-.105-.446-3.466t-.447-4.884q0-.21.184-.367t.446-.158q.316 0 2.049 1.155.892.578 1.785 1.103t1.208.525l.473-.262q.945 0 2.258.472 1.47.42 2.153.42l1.418-.052q2.363 0 4.306-.683t1.943-2.783q0-.42-.289-.709t-.394-.446q-.052-.158-.105-.42t-.105-.42q-.735-1.051-1.549-1.471t-1.68-.683-1.182-.367q.21 0-5.934-1.786-.105 0-.263-.079t-.315-.078q-2.678-.998-4.831-2.994t-2.153-4.464q0-.735.105-1.103l.472-.945q.84-2.783 2.075-4.227t2.835-2.075 4.596-1.313q.262-.052 1.05-.262 1.575-.368 2.1-.368 2.154 0 2.521.42h5.304q.263.368 1.13.92t1.023.708l-.052.263q0 .578.21 1.444t.263 1.077l.052 1.365q.158 1.155.158 2.941 0 .315-.132.446t-.499.132l-1.47-.84q-2.1-1.156-2.993-1.524-1.996-.735-5.882-1.05l-1.576-.157v-.21q-.157.21-1.155.315-1.313.105-2.074.551t-.762 1.864q0 .42 1.444 1.628t3.309 2.364 3.125 1.522q5.934 1.786 7.352 2.731.21.158.604.473t.709.473q.682 0 1.234 1.47t.919 3.256.367 2.153l.263.21q-.105.21-.21.788zm-10.975-22.214q-.157.21-.262.262.105.105.236.158t.184.105q.157 0 .63-.315l.788-.525q-.105-.315-.342-.946t-.551-.892-.945-.368q.052 0 .236.735t.184 1.47q0 .106-.158.316zm2.232-2.18q-.446.132-.394.237 0 .157.131.42t.132.472h.367l1.47-.997q-.682-.263-.997-.263-.263 0-.709.131zm-8.166.552q.262.21.525.551t.473.5.63.157v.262q.42-.052.525-.157t.105-.368-.131-.709-.132-.656l.053-.21q-1.208.157-2.048.63zm4.569.157q0 1.05.682 2.154 0-.316.105-.657t.106-.604q0-.683-.158-.919t-.42-.341-.315-.21v.577zm-6.276.105q-.079.105-.079.158.053.42.263.604t.63.394q.053.052.368.21t.525.472l.42-.21q0-.315-.394-.63t-.761-.315v-.473q-.21 0-.447-.157t-.341-.158-.184.105zm5.068 2.259q0 .42-.315.42-.42 0-.63-.158t-.42-.499-.578-.394q0 .578-.21.736t-.683.21q-.788 0-.998.577h5.462l.262-.682q-.21.105-.525.105-.472 0-.656-.263t-.236-.735q0-.105-.08-.42t-.236-.578-.42-.42q0 .525.105.814t.105.446h-.892q0 .21.315.342t.315.289l-.105.21.367-.21zm6.407-1.208q-1.68.892-1.786.998.105.367.315.997l.315.946q.21-.21 1.208-1.05.736-.63 1.444-1.34t.71-.971q0-.473-.316-.473-.21 0-1.89.893zm-13.97.026q-.735.341-1.286.761t-.551.84q0 .368.63.63t1.05.263q.053-.052.263-.183t.21-.237q-.053-.105-.552-.289t-.499-.288q0-.736 1.05-.736.263 0 .841.447t.893.446l.21-.052q-.105.21-.42.315t-.42.157q.21.053.814.237t.603.394q.053-.263.29-.526t.34-.367h-.472q0-.105-.079-.237t-.079-.236q0-.157.473-.157-.84-1.103-2.363-1.628-.21.105-.945.446zm16.254.263q-.446.393-.499.709.42-.053.762-.29t.341-.603l-.052-.368q-.105.158-.552.552zm-4.647 2.074q0-.735-.315-.735l-.578.472q.315.263.893.263zm5.409-.053q0-.21-.105-.446t-.21-.236q-.315 0-1.05.604t-.893.919l.84.052q1.418 0 1.418-.893zm-20.061 1.235q-.263.603-.578 1.706-.315 1.05-.473 1.26.263 0 .736-.104t.735-.105v.21q.262-.263.761-.342t.814-.105.42-.026q.21 0 .578-.053t.578-.105l-.368-.21q-.367 0-.971-.078t-.867-.132v-.63q-.157.263-.315.368t-.42.105q-.63 0-.63-.315 0-.368.577-.552t1.26-.289.946-.157l-.84-.683q0-.052.131-.131t.184-.079q.21 0 .893.447t.945.446q.21 0 .394-.263t.184-.42l-.21-.157q0-.105.078-.237t.132-.183q-.105.052-.394.236t-.394.184q-.998-.21-1.812-.42t-1.024-.263v.21q.578 0 .578.42l-.368.053q-.105 0-.315-.105t-.315-.105q-.368 0-.63.604zm20.06 1.129q0-1.103-.21-1.103h-1.47l-.21.525q.368 0 .998.394t.893.761v-.577zm-17.566-.184q-.656.131-.761.551h2.048q.315 0 .315-.683-.945 0-1.602.132zm3.598 8.376q.682-.473.997-.473.21 0 .315.053l1.891-1.05v.21q.21-.158.21-.473-1.89 0-3.36.263v-.526q1.312 0 3.308-.525-.158-.052-.92-.682t-1.024-.63q-.84 0-2.021-1.314t-1.287-1.417q-.473.21-.84.21-.315 0-.578-.21l-.262.42-.998-.053q-1.103 0-1.103.473l1.313.052q.052.263.262.447t.42.184q.368 0 .368-.526l.578.473v-.42q.262 0 .971.315t.71.525q0 .263-1.104.63t-1.575.42q.105.105.105.21 0 .263-.368.42 0-.472-.367-.472l-.263.053q.21.052.21.21l-.052.472h-.84q0 .263.236.5t.577.498.5.473q.262-.158.262-.263 0-.315 1.392-.709t1.706-.499v-.262h-2.258q-.052 0-.262-.21 0-.21 2.258-.21 2.626 0 2.626.21v.21q0 .157-.42.315t-.893.262q-.893.21-1.05.315v-.21q-.158.053-.657.263t-.604.368q.105.052.184.157t.079.158q.052 0 .262-.158t.525-.157q0 .367-.761.603t-1.287.237q-.157 0-.367-.079t-.315-.184l-.053.21q0 .263.184.342t.551.078q.473 0 .683.132t.394.472.709.342q.42 0 1.103-.473zm-5.62-3.65q.526-.184.736-.289 1.155-.577 1.995-.577v-.21q-.052 0-.42-.053t-1.208-.105l-2.415-.263q0 1.103.42 1.734.367-.053.892-.237zm9.663 2.285q-.682.262-.682.525v.21q.315-.053.892-.263t.893-.367v-.368q-.42 0-1.103.263zm1.366.787q-.21.263-.263.315-.262.158-1.182.42t-1.181.683q.893 0 1.812-.262t1.181-.315q1.366-.42 2.048-.526v-.21q-.262-.157-.945-.393t-.945-.237q-.315.263-.525.525zm2.888.315q0 .473-.184.762t-.604.709q-.63.63-.63 1.103 1.68-.998 1.89-.998.263 0 .447-.236t.341-.237l-.21.42q.788-.367.84-.84-1.155-.683-1.89-.683zm-6.486 1.05q.342-.262.342-.577l-1.47.63q.052.21.472.21.315 0 .656-.262zm3.886 1.445q.71-.394 1.235-.893t.525-.709q0-.157-.053-.21-.157.053-.394.105t-.393.105q-.578 0-1.182.158t-1.13.367q-.997.42-1.732.526.052.21.42.21t.578.052.21.368h.682v.315q.526 0 1.234-.394zm1.576 1.129q.551.21.814.21v.21q.368-.105.84-.525t.63-.683q-.052.053-.052.263 0 .367.525.367.683 0 1.943-.84.158-.105.604-.341t.762-.341q-.21-.106-.63-.473t-.84-.368q-.316 0-.999.84t-.84 1.26l-.052-.42q0-.42.262-.813t.368-.657q-.42 0-1.786.788-.157.105-.998.525t-1.418.42v.368q.316 0 .867.21zm6.118-1.024q-.21.236-.368.499t-.21.367q-.262.526-.472.788t-.525.263q0 .682-.788 1.628l.21.42q.052-.105 1.155-.893t1.786-1.208q.21-.105.604-.157t.709-.42q-.158-.105-.683-.814t-.893-.71q-.315 0-.525.237zm-3.834.184v.052-.052zm.29 2.048q.55.473.76.735.368-.315.63-.893.579-1.155 1.314-1.628-.525 0-1.208.237t-1.313.551l-.473.236-.63.237q.368.052.92.525zm5.487.525q-.473.63-.683.63-.105.21-.341.5t-.446.603q-1.418 1.996-1.418 2.153.262 0 .604-.289t.499-.288l.21.052 2.153-1.05.84-.21q0-1.313-.893-2.784-.052.053-.525.683zm-2.626 2.363q2.153-2.415 2.153-2.678v-.158l-.997.526q-2.521 1.26-2.521 1.785 0 .63.368 1.733.42-.578.997-1.208zm1.838 6.25q1.313-.998 1.917-1.786t.604-2.1q-.63 0-1.785.63-.998.472-1.313.577.315-.735 1.234-1.26t1.812-.683v-1.313q-.368.158-.63.315t-.368.21l-.315-.052q-.84.42-1.655 1.182t-1.339 1.601q.21 0 .552-.131t.499-.131q-.105.472-1.13 1.313t-2.231 1.496-1.68.657q-.053 0-.185-.132t-.288-.13q-.473.21-1.523 1.128t-1.05 1.287q.314 0 1.05-.341t.945-.604q1.575-1.103 3.597-2.049t2.285-.945q.21 0 .446.184t.446.236q-.262.42-1.418 1.366-1.785 1.365-1.785 1.838 0 .052.052.131t.105.079q.263-.368.814-.735t.71-.526q.577-.577 1.627-1.312zm-20.9-2.416q.262.42.577.42.63 0 .945-1.418h-.42q-.263-.052-.656-.341t-.657-.29q-.052.21-.052.579 0 .63.262 1.05zm17.67-.893q-1.128.683-2.809 1.838.053 0 .446.131t.394.342q0 .157-.105.315t-.105.525q.473-.525 1.418-1.47t1.156-.946q.105 0 .157.053l1.26-1.47q-.682 0-1.811.682zm-14.546 6.276q.551-.867.709-1.077.315-.315.945-.84t.945-1.024.315-1.234q0-.21-.288-.447t-.447-.236l-1.05.42-.21-.052v-.42q-.473 0-.92.262t-.55.315q-.788.578-1.313.578l-.578-.053q-.42.158-.42.21v3.204q0 .578.289.84t1.339.42h.367q.315 0 .867-.866zm8.245-.788q.709-.604.971-.867.263-.21.657-.577t.394-.473l-.42.21q-.106 0-.158-.079t-.053-.13q-.42.84-1.207.84l-.315-.053q.21-.63 1.365-1.155.683-.368 1.05-.683t.368-.893q-.368.315-1.366.525-1.312.315-2.048.998-.42.42-1.995 1.733-1.47 1.05-2.206 2.048.263-.105.735-.341t.788-.5v.211h.578l-.578.42.158.21q.052 0 .236.079t.394.079q.42 0 .682-.08t.63-.288q.63-.63 1.34-1.234zm-9.27-1.34q.158 0 .342-.078t.394-.131q0 .525-.315.682t-.945.158q-.315 0-.473-.158.158-.105.473-.498t.42-.552q.998-1.523 1.418-1.523.472 0 .472.368-.157 0-1.05.735t-.893.945q.053.053.158.053zm2.364 2.837q.893 0 1.392-.315t.971-.788l.683-.683q.052.053.21.053.315 0 .656-.368t.683-.866.499-.657l-2.048.998h-.473v-.263q.158 0 1.313-.761t1.366-.867l-.158-.21h-2.048q-.158.105-.473.394t-.42.499q-.157.315-.735.84t-.735.683q-1.05.945-1.05 1.103t.63.157q-.21.263-.657.63t-.604.368zm-.63-3.834q.105-.158.289-.368t.341-.315q.105 0 .184.08t.079.13q0 .368-.368.604t-.42.29zm12.499 3.256q0-.42 1.995-2.31l.735-.736q-.472 0-1.076.184t-.604.656l-3.781 1.68q0 .158-.657.447t-.866.394q.577.368 1.523.368 1.313 0 2.127-.105t.814-.473q-.21 0-.21-.105zm-5.094-1.628q-.526.42-1.208.761t-1.313.342q.315-.473.971-.998t1.024-.525q.105 0 .526.42zm-5.488.184q.393-.289.866-.289v.368q-.525 0-.683.078t-.236.315-.551.237q.21-.42.604-.71z"/>
</svg>
